<svg width="42" height="42" viewBox="0 0 42 42" fill="none" xmlns="http://www.w3.org/2000/svg">
<path d="M15.4802 17.2363C15.4802 20.2472 17.9057 22.7563 21.0002 22.7563C24.0111 22.7563 26.5202 20.3309 26.5202 17.2363C26.5202 14.2254 24.0948 11.7163 21.0002 11.7163C17.9057 11.7163 15.4802 14.1418 15.4802 17.2363Z" fill="#796A63"/>
<path d="M35.5527 11.7163C32.5418 11.7163 30.0327 14.1418 30.0327 17.2363C30.0327 20.2472 32.4582 22.7563 35.5527 22.7563C38.6473 22.7563 41.0727 20.3309 41.0727 17.2363C41.0727 14.1418 38.6473 11.7163 35.5527 11.7163Z" fill="#796A63"/>
<path d="M11.8838 17.2363C11.8838 14.2254 9.4583 11.7163 6.36375 11.7163C3.35284 11.7163 0.84375 14.1418 0.84375 17.2363C0.84375 20.2472 3.2692 22.7563 6.36375 22.7563C9.4583 22.6727 11.8838 20.2472 11.8838 17.2363Z" fill="#796A63"/>
<path d="M13.6401 11.7998C16.651 11.7998 19.1601 9.37431 19.1601 6.27977C19.1601 3.26886 16.7347 0.759766 13.6401 0.759766C10.6292 0.759766 8.12012 3.18522 8.12012 6.27977C8.20375 9.37431 10.6292 11.7998 13.6401 11.7998Z" fill="#796A63"/>
<path d="M28.1928 11.7998C31.2038 11.7998 33.7129 9.37431 33.7129 6.27977C33.7129 3.26886 31.2874 0.759766 28.1928 0.759766C25.1819 0.759766 22.6729 3.18522 22.6729 6.27977C22.6729 9.37431 25.1819 11.7998 28.1928 11.7998Z" fill="#796A63"/>
<path d="M24.5966 26.7705H17.6548V37.8105H6.44751V41.156H35.553V37.8105H24.5966V26.7705Z" fill="#796A63"/>
</svg>
