<svg width="50" height="29" viewBox="0 0 50 29" fill="none" xmlns="http://www.w3.org/2000/svg">
<path d="M49.109 13.6999H33.6036L36.3454 10.7999C36.5345 10.5999 36.629 10.3999 36.629 10.1999C36.629 9.9999 36.5345 9.7999 36.3454 9.5999C36.1563 9.3999 35.9672 9.3999 35.7781 9.3999C35.589 9.3999 35.3999 9.4999 35.2108 9.5999L31.1454 13.8999C30.9563 13.9999 30.9563 14.2999 30.9563 14.4999C30.9563 14.6999 31.0508 14.8999 31.1454 15.0999L35.2108 19.3999C35.3999 19.5999 35.589 19.5999 35.7781 19.5999C35.9672 19.5999 36.1563 19.4999 36.3454 19.3999C36.5345 19.1999 36.629 18.9999 36.629 18.7999C36.629 18.5999 36.5345 18.3999 36.3454 18.1999L33.6036 15.2999H49.109C49.5817 15.2999 49.8654 14.8999 49.8654 14.4999C50.0545 13.9999 49.6763 13.6999 49.109 13.6999Z" fill="#010101"/>
<path d="M28.0254 0.600098C27.5527 0.600098 27.269 1.0001 27.269 1.4001V27.5001C27.269 28.0001 27.6472 28.3001 28.0254 28.3001C28.4981 28.3001 28.7818 27.9001 28.7818 27.5001V1.4001C28.9709 1.0001 28.4981 0.600098 28.0254 0.600098Z" fill="#010101"/>
<path d="M14.8837 9.5999C14.6946 9.3999 14.5055 9.3999 14.3164 9.3999C14.1273 9.3999 13.9382 9.4999 13.7491 9.5999C13.56 9.7999 13.4655 9.9999 13.4655 10.1999C13.4655 10.3999 13.56 10.5999 13.7491 10.7999L16.4909 13.6999H0.796403C0.323675 13.6999 0.0400391 14.0999 0.0400391 14.4999C0.0400391 14.9999 0.418221 15.2999 0.796403 15.2999H16.3019L13.56 18.1999C13.3709 18.3999 13.2764 18.5999 13.2764 18.7999C13.2764 18.9999 13.3709 19.1999 13.56 19.3999C13.7491 19.5999 13.9382 19.5999 14.1273 19.5999C14.3164 19.5999 14.5055 19.4999 14.6946 19.3999L18.76 15.0999C18.9491 14.9999 18.9491 14.6999 18.9491 14.4999C18.9491 14.2999 18.8546 14.0999 18.76 13.8999L14.8837 9.5999Z" fill="#010101"/>
<path d="M21.9746 0.600098C21.5019 0.600098 21.2183 1.0001 21.2183 1.4001V27.5001C21.2183 28.0001 21.5964 28.3001 21.9746 28.3001C22.4474 28.3001 22.731 27.9001 22.731 27.5001V1.4001C22.731 1.0001 22.4474 0.600098 21.9746 0.600098Z" fill="#010101"/>
</svg>
