<svg width="34" height="38" viewBox="0 0 34 38" fill="none" xmlns="http://www.w3.org/2000/svg">
<path d="M20.0109 24.3527V15.2363H13.9891V24.3527L0.272705 37.9854H33.7272L20.0109 24.3527Z" fill="#796A63"/>
<path d="M22.3527 7.62542C24.4436 7.62542 26.1163 5.95269 26.1163 3.86178C26.1163 1.77087 24.4436 0.0981445 22.3527 0.0981445C20.2618 0.0981445 18.5891 1.77087 18.5891 3.86178C18.5054 5.86905 20.2618 7.62542 22.3527 7.62542Z" fill="#796A63"/>
<path d="M12.4001 9.13071C14.0728 9.13071 15.411 7.79252 15.411 6.1198C15.411 4.44707 14.0728 3.10889 12.4001 3.10889C10.7273 3.10889 9.38916 4.36343 9.38916 6.03616C9.38916 7.79252 10.7273 9.13071 12.4001 9.13071Z" fill="#796A63"/>
<path d="M18.2697 13.5868C19.4834 13.3002 20.235 12.084 19.9484 10.8703C19.6618 9.65652 18.4456 8.90492 17.2318 9.19152C16.0181 9.47812 15.2665 10.6944 15.5531 11.9081C15.8397 13.1218 17.056 13.8734 18.2697 13.5868Z" fill="#796A63"/>
</svg>
