<svg width="44" height="44" viewBox="0 0 44 44" fill="none" xmlns="http://www.w3.org/2000/svg">
<path d="M20.1599 16.229C16.0618 16.229 12.7163 19.5745 12.7163 23.6726C12.7163 27.7708 16.0618 31.1163 20.1599 31.1163C24.2581 31.1163 27.6036 27.7708 27.6036 23.6726C27.6036 19.5745 24.2581 16.229 20.1599 16.229Z" fill="#796A63"/>
<path d="M30.1128 31.9526C28.2728 31.9526 26.7673 33.4581 26.7673 35.2981C26.7673 37.1381 28.2728 38.6435 30.1128 38.6435C31.9528 38.6435 33.4582 37.1381 33.4582 35.2981C33.3746 33.3745 31.8692 31.9526 30.1128 31.9526Z" fill="#796A63"/>
<path d="M23.4219 10.3745C25.2619 10.3745 26.7673 8.86905 26.7673 7.02905C26.7673 5.18905 25.2619 3.68359 23.4219 3.68359C21.5819 3.68359 20.0764 5.18905 20.0764 7.02905C20.1601 8.95268 21.5819 10.3745 23.4219 10.3745Z" fill="#796A63"/>
<path d="M6.86181 20.3271C8.70181 20.3271 10.2073 18.8217 10.2073 16.9817C10.2073 15.1417 8.70181 13.6362 6.86181 13.6362C5.02181 13.6362 3.51636 15.1417 3.51636 16.9817C3.59999 18.8217 5.02181 20.3271 6.86181 20.3271Z" fill="#796A63"/>
<path d="M13.4692 15.3926C15.3092 15.3926 16.8147 13.8871 16.8147 12.0471C16.8147 10.2071 15.3092 8.70166 13.4692 8.70166C11.6292 8.70166 10.1238 10.2071 10.1238 12.0471C10.2074 13.8871 11.7129 15.3926 13.4692 15.3926Z" fill="#796A63"/>
<path d="M9.37111 4.01801C10.4584 3.59982 10.9602 2.34528 10.4584 1.34164C10.0402 0.254369 8.78566 -0.247449 7.78202 0.254369C6.69475 0.672551 6.19293 1.84346 6.61111 2.93073C7.02929 3.93437 8.28384 4.43619 9.37111 4.01801Z" fill="#796A63"/>
<path d="M7.78183 39.9819C6.69455 40.4001 6.19274 41.6546 6.69455 42.6582C7.11274 43.7455 8.36728 44.2473 9.37092 43.7455C10.4582 43.3273 10.96 42.0728 10.4582 41.0692C10.04 40.0655 8.78546 39.5637 7.78183 39.9819Z" fill="#796A63"/>
<path d="M43.5783 14.556C43.1601 13.4687 41.9056 12.9669 40.9019 13.4687C39.8147 13.8869 39.3129 15.1415 39.8147 16.1451C40.2329 17.2324 41.4874 17.7342 42.491 17.2324C43.4947 16.8142 43.9965 15.6433 43.5783 14.556Z" fill="#796A63"/>
<path d="M33.3748 17.0654C31.5348 17.0654 30.0293 18.5709 30.0293 20.4109C30.0293 22.2509 31.5348 23.7563 33.3748 23.7563C35.2148 23.7563 36.7202 22.2509 36.7202 20.4109C36.7202 18.4872 35.2148 17.0654 33.3748 17.0654Z" fill="#796A63"/>
<path d="M3.60009 25.3452C1.76009 25.3452 0.254639 26.8507 0.254639 28.6907C0.254639 30.5307 1.76009 32.0361 3.60009 32.0361C5.44009 32.0361 6.94555 30.5307 6.94555 28.6907C6.94555 26.8507 5.35646 25.3452 3.60009 25.3452Z" fill="#796A63"/>
<path d="M13.4692 31.9526C11.6292 31.9526 10.1238 33.4581 10.1238 35.2981C10.1238 37.1381 11.6292 38.6435 13.4692 38.6435C15.3092 38.6435 16.8147 37.1381 16.8147 35.2981C16.8147 33.4581 15.3092 31.9526 13.4692 31.9526Z" fill="#796A63"/>
</svg>
