<svg width="35" height="34" viewBox="0 0 35 34" fill="none" xmlns="http://www.w3.org/2000/svg">
<path d="M19.0856 24.3139C23.1763 23.348 25.7095 19.2487 24.7435 15.158C23.7776 11.0672 19.6783 8.5341 15.5876 9.50004C11.4969 10.466 8.96371 14.5652 9.92965 18.656C10.8956 22.7467 14.9948 25.2798 19.0856 24.3139Z" fill="#796A63"/>
<path d="M26.9528 10.3089C28.6255 10.3089 29.9637 8.97075 29.9637 7.29802C29.9637 5.62529 28.6255 4.28711 26.9528 4.28711C25.2801 4.28711 23.9419 5.62529 23.9419 7.29802C23.9419 8.88711 25.2801 10.3089 26.9528 10.3089Z" fill="#796A63"/>
<path d="M7.63298 23.5234C5.96025 23.5234 4.62207 24.8616 4.62207 26.5343C4.62207 28.2071 5.96025 29.5453 7.63298 29.5453C9.3057 29.5453 10.6439 28.2071 10.6439 26.5343C10.6439 24.8616 9.3057 23.5234 7.63298 23.5234Z" fill="#796A63"/>
<path d="M7.63298 10.3089C9.3057 10.3089 10.6439 8.97075 10.6439 7.29802C10.6439 5.62529 9.3057 4.28711 7.63298 4.28711C5.96025 4.28711 4.62207 5.62529 4.62207 7.29802C4.62207 8.88711 5.96025 10.3089 7.63298 10.3089Z" fill="#796A63"/>
<path d="M26.9528 23.5234C25.2801 23.5234 23.9419 24.8616 23.9419 26.5343C23.9419 28.2071 25.2801 29.5453 26.9528 29.5453C28.6255 29.5453 29.9637 28.2071 29.9637 26.5343C30.0473 24.8616 28.6255 23.5234 26.9528 23.5234Z" fill="#796A63"/>
<path d="M20.3454 0.188965H14.24V6.29442H20.3454V0.188965Z" fill="#796A63"/>
<path d="M20.3454 27.5381H14.24V33.6435H20.3454V27.5381Z" fill="#796A63"/>
<path d="M34.062 13.8218H27.9565V19.9272H34.062V13.8218Z" fill="#796A63"/>
<path d="M6.71288 13.8218H0.607422V19.9272H6.71288V13.8218Z" fill="#796A63"/>
</svg>
