<svg width="40" height="40" viewBox="0 0 40 40" fill="none" xmlns="http://www.w3.org/2000/svg">
<path d="M12.3055 6.70157L8.8764 0.930664C1.68367 5.27976 -0.658146 14.5634 3.69094 21.7561C6.03276 25.7707 4.77822 30.8725 0.763672 33.2979L4.19276 39.0688C11.3855 34.7198 13.7273 25.4361 9.46185 18.2434C7.0364 14.3125 8.37458 9.12703 12.3055 6.70157Z" fill="#796A63"/>
<path d="M25.7708 6.70157L22.3417 0.930664C15.149 5.27976 12.8072 14.5634 17.1563 21.7561C19.5817 25.7707 18.2435 30.8725 14.229 33.2979L17.6581 39.0688C24.8508 34.7198 27.1926 25.4361 22.9272 18.2434C20.5017 14.3125 21.7563 9.12703 25.7708 6.70157Z" fill="#796A63"/>
<path d="M39.2365 6.70157L35.8075 0.930664C28.6147 5.27976 26.2729 14.5634 30.5384 21.7561C32.9638 25.7707 31.6256 30.8725 27.6111 33.2979L31.0402 39.0688C38.3165 34.7198 40.6584 25.4361 36.3093 18.2434C33.9675 14.3125 35.222 9.12703 39.2365 6.70157Z" fill="#796A63"/>
</svg>
