<svg width="36" height="43" viewBox="0 0 36 43" fill="none" xmlns="http://www.w3.org/2000/svg">
<path d="M8.92363 6L0.792725 11V32L7.97818 36.4V27V15.9C7.97818 15.5 8.26182 15.1 8.45091 15L16.1091 10.4L8.92363 6Z" fill="black"/>
<path d="M18 31.4001L26.131 26.4001V16.6001L18 11.6001L9.86914 16.6001V26.4001L18 31.4001Z" fill="black"/>
<path d="M17.9999 0.399902L10.8145 4.7999L18.4726 9.5999L27.549 15.0999C27.8326 15.1999 28.0217 15.5999 28.0217 15.9999V25.3999L30.2908 23.9999L35.1126 20.9999V10.9999L17.9999 0.399902Z" fill="black"/>
<path d="M27.5491 27.8999L18.4728 33.4999C18.3782 33.5999 18.0946 33.5999 18 33.5999C17.9055 33.5999 17.6219 33.5999 17.5273 33.4999L9.86914 28.8999V37.6999L18 42.6999L35.3019 32.1999V23.3999L27.5491 27.8999Z" fill="black"/>
</svg>
