<svg width="24" height="25" viewBox="0 0 24 25" fill="none" xmlns="http://www.w3.org/2000/svg">
<path d="M22.4 0.399902H16.4437C15.9709 0.399902 15.4982 0.799902 15.4982 1.3999C15.4982 1.9999 15.8764 2.3999 16.4437 2.3999H20.32L13.4182 9.5999C13.04 9.8999 12.9455 10.4999 13.2291 10.8999C13.5128 11.2999 14.08 11.3999 14.4582 11.0999C14.5528 10.9999 14.6473 10.9999 14.6473 10.8999L21.6437 3.4999V7.5999C21.6437 8.0999 22.0219 8.5999 22.4946 8.5999C22.9673 8.5999 23.44 8.1999 23.44 7.5999V1.2999C23.3455 0.799902 22.9673 0.399902 22.4 0.399902Z" fill="#010101"/>
<path d="M10.4873 13.7997C10.1091 13.4997 9.54188 13.4997 9.25824 13.7997L2.35642 21.2997V17.1997C2.35642 16.6997 1.97824 16.2997 1.41097 16.2997C0.93824 16.2997 0.560059 16.6997 0.560059 17.2997L0.654604 23.5997C0.654604 24.0997 1.03279 24.5997 1.60006 24.5997L7.55642 24.4997C8.02915 24.4997 8.40733 24.0997 8.40733 23.4997C8.40733 22.8997 8.02915 22.5997 7.46188 22.5997L3.58551 22.6997L10.4873 15.1997C10.771 14.7997 10.771 14.1997 10.4873 13.7997Z" fill="#010101"/>
</svg>
