<svg width="36" height="39" viewBox="0 0 36 39" fill="none" xmlns="http://www.w3.org/2000/svg">
<path d="M2.39995 5.1999C3.5345 5.1999 4.66904 4.2999 4.66904 2.7999C4.66904 1.2999 3.81813 0.399902 2.39995 0.399902C1.2654 0.399902 0.130859 1.2999 0.130859 2.7999C0.130859 4.2999 1.2654 5.1999 2.39995 5.1999Z" fill="black"/>
<path d="M2.39995 11.6997C0.981768 11.6997 0.130859 12.5997 0.130859 14.0997C0.130859 15.5997 0.981768 16.4997 2.39995 16.4997C3.81813 16.4997 4.66904 15.5997 4.66904 14.0997C4.66904 12.5997 3.81813 11.6997 2.39995 11.6997Z" fill="black"/>
<path d="M2.39987 26.7998C3.18311 26.7998 3.81805 26.1282 3.81805 25.2998C3.81805 24.4714 3.18311 23.7998 2.39987 23.7998C1.61663 23.7998 0.981689 24.4714 0.981689 25.2998C0.981689 26.1282 1.61663 26.7998 2.39987 26.7998Z" fill="black"/>
<path d="M0.414551 36.4C0.414551 37.6 1.26546 38.5 2.40001 38.5C3.53455 38.5 4.38546 37.6 4.38546 36.4C4.38546 35.2 3.53455 34.3 2.40001 34.3C1.26546 34 0.414551 35.2 0.414551 36.4Z" fill="black"/>
<path d="M7.78916 6.7998C6.93825 6.7998 6.18188 7.5998 6.18188 8.4998C6.18188 9.3998 6.93825 10.1998 7.78916 10.1998C8.64007 10.1998 9.39643 9.3998 9.39643 8.4998C9.30188 7.5998 8.64007 6.7998 7.78916 6.7998Z" fill="black"/>
<path d="M7.7891 21.7998C8.83343 21.7998 9.68001 20.9044 9.68001 19.7998C9.68001 18.6952 8.83343 17.7998 7.7891 17.7998C6.74478 17.7998 5.89819 18.6952 5.89819 19.7998C5.89819 20.9044 6.74478 21.7998 7.7891 21.7998Z" fill="black"/>
<path d="M7.78903 29.3999C7.03267 29.3999 6.37085 30.1999 6.37085 30.8999C6.37085 31.5999 7.12721 32.3999 7.78903 32.3999C8.5454 32.3999 9.20721 31.5999 9.20721 30.8999C9.01812 29.8999 8.35631 29.3999 7.78903 29.3999Z" fill="black"/>
<path d="M12.8944 5.0999C13.9909 5.0999 14.8798 4.1597 14.8798 2.9999C14.8798 1.8401 13.9909 0.899902 12.8944 0.899902C11.7979 0.899902 10.9089 1.8401 10.9089 2.9999C10.9089 4.1597 11.7979 5.0999 12.8944 5.0999Z" fill="black"/>
<path d="M12.8944 16.3001C13.9909 16.3001 14.8798 15.3599 14.8798 14.2001C14.8798 13.0403 13.9909 12.1001 12.8944 12.1001C11.7979 12.1001 10.9089 13.0403 10.9089 14.2001C10.9089 15.3599 11.7979 16.3001 12.8944 16.3001Z" fill="black"/>
<path d="M12.8946 27.2998C13.9389 27.2998 14.7855 26.4044 14.7855 25.2998C14.7855 24.1952 13.9389 23.2998 12.8946 23.2998C11.8503 23.2998 11.0037 24.1952 11.0037 25.2998C11.0037 26.4044 11.8503 27.2998 12.8946 27.2998Z" fill="black"/>
<path d="M12.8946 37.5997C13.5211 37.5997 14.0291 37.0624 14.0291 36.3997C14.0291 35.737 13.5211 35.1997 12.8946 35.1997C12.268 35.1997 11.76 35.737 11.76 36.3997C11.76 37.0624 12.268 37.5997 12.8946 37.5997Z" fill="black"/>
<path d="M18.2837 6.7998C17.4328 6.7998 16.8655 7.5998 16.8655 8.2998C16.8655 9.1998 17.6218 9.7998 18.2837 9.7998C19.1346 9.7998 19.7018 8.9998 19.7018 8.2998C19.6073 7.5998 18.8509 6.7998 18.2837 6.7998Z" fill="black"/>
<path d="M18.2836 17.5C17.149 17.5 16.2981 18.4 16.2981 19.6C16.2981 20.8 17.149 21.7 18.2836 21.7C19.4181 21.7 20.269 20.8 20.269 19.6C20.269 18.6 19.4181 17.5 18.2836 17.5Z" fill="black"/>
<path d="M18.2835 32.5997C19.1345 32.5997 19.8908 31.7997 19.8908 30.8997C19.8908 29.9997 19.1345 29.1997 18.2835 29.1997C17.4326 29.1997 16.6763 29.9997 16.6763 30.8997C16.4872 31.4997 17.2436 32.5997 18.2835 32.5997Z" fill="black"/>
<path d="M23.4837 5.4001C24.7369 5.4001 25.7528 4.32558 25.7528 3.0001C25.7528 1.67461 24.7369 0.600098 23.4837 0.600098C22.2305 0.600098 21.2146 1.67461 21.2146 3.0001C21.2146 4.32558 22.2305 5.4001 23.4837 5.4001Z" fill="black"/>
<path d="M24.9018 14.1997C24.9018 13.3997 24.1454 12.6997 23.4836 12.6997C22.8218 12.6997 22.0654 13.4997 22.0654 14.1997C22.0654 14.9997 22.8218 15.6997 23.4836 15.6997C24.1454 15.6997 24.9018 14.8997 24.9018 14.1997Z" fill="black"/>
<path d="M23.4837 22.8999C22.3491 22.8999 21.2146 23.7999 21.2146 25.2999C21.2146 26.4999 22.0655 27.6999 23.4837 27.6999C24.6182 27.6999 25.7528 26.7999 25.7528 25.2999C25.7528 23.8999 24.6182 22.8999 23.4837 22.8999Z" fill="black"/>
<path d="M23.4835 38.0997C24.3712 38.0997 25.0908 37.3386 25.0908 36.3997C25.0908 35.4608 24.3712 34.6997 23.4835 34.6997C22.5958 34.6997 21.8762 35.4608 21.8762 36.3997C21.8762 37.3386 22.5958 38.0997 23.4835 38.0997Z" fill="black"/>
<path d="M30.3854 8.7C30.3854 7.8 29.6291 7 28.7782 7C27.9273 7 27.1709 7.8 27.1709 8.7C27.1709 9.6 27.9273 10.4 28.7782 10.4C29.6291 10.4 30.3854 9.6 30.3854 8.7Z" fill="black"/>
<path d="M28.7781 21.0001C29.4047 21.0001 29.9126 20.4628 29.9126 19.8001C29.9126 19.1374 29.4047 18.6001 28.7781 18.6001C28.1515 18.6001 27.6436 19.1374 27.6436 19.8001C27.6436 20.4628 28.1515 21.0001 28.7781 21.0001Z" fill="black"/>
<path d="M28.7781 28.8999C27.9272 28.8999 26.8872 29.7999 26.8872 30.8999C26.8872 31.7999 27.7381 32.8999 28.7781 32.8999C29.629 32.8999 30.669 31.9999 30.669 30.8999C30.4799 29.6999 29.629 28.8999 28.7781 28.8999Z" fill="black"/>
<path d="M33.9781 0.899902C32.8436 0.899902 31.9927 1.7999 31.9927 2.9999C31.9927 4.1999 32.8436 5.0999 33.9781 5.0999C35.1127 5.0999 35.9636 4.1999 35.9636 2.9999C35.9636 1.7999 35.1127 0.899902 33.9781 0.899902Z" fill="black"/>
<path d="M33.9781 16.1001C35.1126 16.1001 35.869 15.2001 35.869 14.1001C35.869 13.0001 35.0181 12.1001 33.9781 12.1001C32.8435 12.1001 32.0872 13.0001 32.0872 14.1001C32.0872 15.2001 32.8435 16.1001 33.9781 16.1001Z" fill="black"/>
<path d="M33.9781 23.1997C32.8435 23.1997 32.0872 24.0997 32.0872 25.1997C32.0872 26.3997 32.9381 27.1997 33.9781 27.1997C35.1126 27.1997 35.869 26.2997 35.869 25.1997C35.869 24.0997 35.0181 23.1997 33.9781 23.1997Z" fill="black"/>
<path d="M33.9781 34.3999C33.1272 34.3999 32.3708 35.1999 32.3708 36.0999C32.3708 36.9999 33.1272 37.7999 33.9781 37.7999C34.829 37.7999 35.5854 36.9999 35.5854 36.0999C35.5854 35.4999 35.0181 34.3999 33.9781 34.3999Z" fill="black"/>
</svg>
