<svg width="246" height="44" viewBox="0 0 246 44" fill="none" xmlns="http://www.w3.org/2000/svg">
<path d="M87.8 41.8L83.5 35.3V41.8H82.1V32.5H83.4L87.7 39V32.5H89.1V41.8H87.8Z" fill="black"/>
<path d="M98.5 41.8L97.9 39.9H94.2L93.6 41.8H92.1L95.5 32.5H96.6L100 41.8H98.5ZM96.1 34.6L94.6 38.7H97.5L96.1 34.6Z" fill="black"/>
<path d="M105.3 33.8V41.8H103.9V33.8H101.3V32.5H107.8V33.8H105.3Z" fill="black"/>
<path d="M114.4 41.9C112.5 41.9 111.1 40.6 111.1 38.7V32.5H112.5V38.6C112.5 39.8 113.3 40.6 114.4 40.6C115.6 40.6 116.3 39.8 116.3 38.6V32.5H117.7V38.7C117.7 40.6 116.2 41.9 114.4 41.9Z" fill="black"/>
<path d="M126.8 41.8L124.8 37.9H123V41.8H121.6V32.5H125.2C127 32.5 128.1 33.6 128.1 35.2C128.1 36.5 127.3 37.4 126.2 37.7L128.3 41.8H126.8ZM125.1 33.8H123V36.7H125.1C126 36.7 126.7 36.2 126.7 35.2C126.7 34.2 126.1 33.8 125.1 33.8Z" fill="black"/>
<path d="M137.2 41.8L136.6 39.9H132.9L132.3 41.8H130.8L134.2 32.5H135.3L138.7 41.8H137.2ZM134.7 34.6L133.2 38.7H136.1L134.7 34.6Z" fill="black"/>
<path d="M141.7 41.8V32.5H143.1V40.5H147.6V41.8H141.7Z" fill="black"/>
<path d="M150.8 41.8V32.5H152.2V40.5H156.7V41.8H150.8Z" fill="black"/>
<path d="M161.9 38V41.8H160.5V38L157.7 32.5H159.2L161.1 36.6L163 32.5H164.5L161.9 38Z" fill="black"/>
<path d="M172.3 41.8V32.5H173.7V41.8H172.3Z" fill="black"/>
<path d="M180.9 33.8V41.8H179.5V33.8H176.9V32.5H183.4V33.8H180.9Z" fill="black"/>
<path d="M191.3 41.8L190.7 39.9H187L186.4 41.8H184.9L188.3 32.5H189.4L192.8 41.8H191.3ZM188.8 34.6L187.3 38.7H190.2L188.8 34.6Z" fill="black"/>
<path d="M195.7 41.8V32.5H197.1V40.5H201.6V41.8H195.7Z" fill="black"/>
<path d="M204.9 41.8V32.5H206.3V41.8H204.9Z" fill="black"/>
<path d="M215.7 41.8L215.1 39.9H211.4L210.8 41.8H209.3L212.7 32.5H213.8L217.2 41.8H215.7ZM213.3 34.6L211.8 38.7H214.7L213.3 34.6Z" fill="black"/>
<path d="M225.9 41.8L221.6 35.3V41.8H220.2V32.5H221.5L225.8 39V32.5H227.2V41.8H225.9Z" fill="black"/>
<path d="M18.8 0.899963H0.200012V19.5H18.8V0.899963Z" fill="#796A63"/>
<path d="M41.1 0.899963H22.5V19.5H41.1V0.899963Z" fill="#796A63"/>
<path d="M0.200012 23.2C0.200012 34.5 9.40001 43.7 20.7 43.7C32 43.7 41.2 34.5 41.2 23.2H0.200012Z" fill="#796A63"/>
<path d="M85.8 0.899963H82.1V19.5H93.7V16.5H85.8V0.899963Z" fill="black"/>
<path d="M145.3 1.59996C144.3 1.09996 143.1 0.899963 141.7 0.899963H134.7V19.5H138.4V12.6H141.7C143.8 12.6 145.5 12.1 146.7 11.1C147.9 10.1 148.5 8.69996 148.5 6.89996C148.5 5.69996 148.2 4.69996 147.7 3.79996C147.2 2.79996 146.4 2.09996 145.3 1.59996ZM144 8.89996C143.5 9.39996 142.7 9.59996 141.7 9.59996H138.4V3.89996H141.8C142.7 3.89996 143.4 4.19996 144 4.69996C144.5 5.19996 144.8 5.99996 144.8 6.79996C144.8 7.79996 144.5 8.39996 144 8.89996Z" fill="black"/>
<path d="M165.8 0.899963H162.1V19.5H165.8V0.899963Z" fill="black"/>
<path d="M178.7 3.89996H184.2V19.5H187.9V3.89996H193.4V0.899963H178.7V3.89996Z" fill="black"/>
<path d="M210.2 11.4H217.3V8.49996H210.2V3.89996H218.5V0.899963H206.5V19.5H218.6V16.5H210.2V11.4Z" fill="black"/>
<path d="M241.1 15.9C240.5 16.4 239.7 16.7 238.5 16.7C237.2 16.7 236.3 16.2 235.7 15.3C235.1 14.4 234.8 12.7 234.8 10.7V9.09998C234.8 7.19998 235.1 5.89998 235.7 4.99998C236.3 4.09998 237.2 3.69998 238.5 3.69998C239.6 3.69998 240.5 3.99998 241 4.49998C241.6 4.99998 241.9 5.89998 242 6.99998H245.7C245.5 4.99998 244.8 3.39997 243.5 2.29997C242.2 1.19997 240.5 0.599976 238.5 0.599976C237 0.599976 235.7 0.999976 234.5 1.69998C233.4 2.39998 232.5 3.39998 231.9 4.69998C231.3 5.99998 231 7.59997 231 9.29997V10.7C231 13.4 231.7 15.8 233 17.4C234.3 19 236.1 19.7 238.5 19.7C240.6 19.7 242.3 19.1 243.6 18C244.9 16.9 245.6 15.4 245.8 13.4H242.1C242 14.6 241.7 15.4 241.1 15.9Z" fill="black"/>
<path d="M112.2 0.899963L105.3 19.5H109.3L110.6 15.5H117.1L118.4 19.5H122.4L115.4 0.899963H112.2ZM111.5 12.5L113.7 5.69996L116 12.5H111.5Z" fill="black"/>
</svg>
