<svg width="198" height="36" viewBox="0 0 198 36" fill="none" xmlns="http://www.w3.org/2000/svg">
<path d="M70.8922 33.7208L67.434 28.5337V33.7208H66.3081V26.2993H67.3536L70.8118 31.4863V26.2993H71.9377V33.7208H70.8922Z" fill="black"/>
<path d="M79.4974 33.7208L79.0149 32.2046H76.0392L75.5567 33.7208H74.3503L77.0847 26.2993H77.9694L80.7038 33.7208H79.4974ZM77.5673 27.9751L76.3609 31.2469H78.6932L77.5673 27.9751Z" fill="black"/>
<path d="M84.9662 27.3367V33.7208H83.8403V27.3367H81.7493V26.2993H86.9768V27.3367H84.9662Z" fill="black"/>
<path d="M92.2848 33.8006C90.7568 33.8006 89.6309 32.7632 89.6309 31.2469V26.2993H90.7568V31.1671C90.7568 32.1248 91.4002 32.7632 92.2848 32.7632C93.2499 32.7632 93.8129 32.1248 93.8129 31.1671V26.2993H94.9388V31.2469C94.9388 32.7632 93.7324 33.8006 92.2848 33.8006Z" fill="black"/>
<path d="M102.257 33.7208L100.649 30.6085H99.2011V33.7208H98.0752V26.2993H100.97C102.418 26.2993 103.303 27.1771 103.303 28.4539C103.303 29.4913 102.659 30.2095 101.775 30.4489L103.464 33.7208H102.257ZM100.89 27.3367H99.2011V29.6509H100.89C101.614 29.6509 102.177 29.2519 102.177 28.4539C102.177 27.6559 101.694 27.3367 100.89 27.3367Z" fill="black"/>
<path d="M110.621 33.7208L110.139 32.2046H107.163L106.681 33.7208H105.474L108.209 26.2993H109.093L111.828 33.7208H110.621ZM108.611 27.9751L107.405 31.2469H109.737L108.611 27.9751Z" fill="black"/>
<path d="M114.24 33.7208V26.2993H115.366V32.6834H118.985V33.7208H114.24Z" fill="black"/>
<path d="M121.559 33.7208V26.2993H122.685V32.6834H126.304V33.7208H121.559Z" fill="black"/>
<path d="M130.486 30.6883V33.7208H129.36V30.6883L127.108 26.2993H128.315L129.843 29.5711L131.371 26.2993H132.577L130.486 30.6883Z" fill="black"/>
<path d="M138.85 33.7208V26.2993H139.976V33.7208H138.85Z" fill="black"/>
<path d="M145.766 27.3367V33.7208H144.64V27.3367H142.549V26.2993H147.777V27.3367H145.766Z" fill="black"/>
<path d="M154.13 33.7208L153.648 32.2046H150.672L150.19 33.7208H148.983L151.718 26.2993H152.602L155.337 33.7208H154.13ZM152.12 27.9751L150.913 31.2469H153.246L152.12 27.9751Z" fill="black"/>
<path d="M157.669 33.7208V26.2993H158.795V32.6834H162.414V33.7208H157.669Z" fill="black"/>
<path d="M165.068 33.7208V26.2993H166.194V33.7208H165.068Z" fill="black"/>
<path d="M173.754 33.7208L173.271 32.2046H170.295L169.813 33.7208H168.606L171.341 26.2993H172.225L174.96 33.7208H173.754ZM171.823 27.9751L170.617 31.2469H172.949L171.823 27.9751Z" fill="black"/>
<path d="M181.957 33.7208L178.498 28.5337V33.7208H177.373V26.2993H178.418L181.876 31.4863V26.2993H183.002V33.7208H181.957Z" fill="black"/>
<path d="M15.4001 1.08301H0.441406V15.9259H15.4001V1.08301Z" fill="black"/>
<path d="M33.3345 1.08228H18.3757V15.9252H33.3345V1.08228Z" fill="black"/>
<path d="M0.441406 18.8777C0.441406 27.8951 7.84035 35.2368 16.9282 35.2368C26.016 35.2368 33.415 27.8951 33.415 18.8777H0.441406Z" fill="black"/>
<path d="M69.2838 1.08228H66.3081V15.9252H75.6372V13.5312H69.2838V1.08228Z" fill="black"/>
<path d="M117.136 1.64088C116.331 1.24188 115.366 1.08228 114.24 1.08228H108.611V15.9252H111.586V10.4189H114.24C115.929 10.4189 117.297 10.0199 118.262 9.22193C119.227 8.42392 119.709 7.30671 119.709 5.87031C119.709 4.9127 119.468 4.11469 119.066 3.39649C118.664 2.59848 118.02 2.03988 117.136 1.64088ZM116.09 7.46632C115.688 7.86532 115.045 8.02492 114.24 8.02492H111.586V3.47629H114.321C115.045 3.47629 115.608 3.71569 116.09 4.1147C116.492 4.5137 116.734 5.1521 116.734 5.7905C116.734 6.58851 116.492 7.06731 116.09 7.46632Z" fill="black"/>
<path d="M133.622 1.08228H130.647V15.9252H133.622V1.08228Z" fill="black"/>
<path d="M143.997 3.47629H148.42V15.9252H151.396V3.47629H155.819V1.08228H143.997V3.47629Z" fill="black"/>
<path d="M169.33 9.46133H175.04V7.14711H169.33V3.47629H176.006V1.08228H166.355V15.9252H176.086V13.5312H169.33V9.46133Z" fill="black"/>
<path d="M194.181 13.0522C193.699 13.4513 193.055 13.6907 192.09 13.6907C191.045 13.6907 190.321 13.2916 189.838 12.5734C189.356 11.8552 189.114 10.4986 189.114 8.90262V7.62582C189.114 6.10961 189.356 5.0722 189.838 4.35399C190.321 3.63579 191.045 3.31659 192.09 3.31659C192.975 3.31659 193.699 3.55599 194.101 3.95499C194.583 4.35399 194.824 5.0722 194.905 5.95H197.881C197.72 4.35399 197.157 3.07719 196.111 2.19938C195.066 1.32158 193.699 0.842773 192.09 0.842773C190.884 0.842773 189.838 1.16198 188.873 1.72058C187.989 2.27918 187.265 3.07719 186.782 4.11459C186.3 5.152 186.058 6.42881 186.058 7.78542V8.90262C186.058 11.0572 186.621 12.9724 187.667 14.2493C188.712 15.5261 190.16 16.0847 192.09 16.0847C193.779 16.0847 195.146 15.6059 196.192 14.7281C197.237 13.8503 197.8 12.6532 197.961 11.0572H194.985C194.905 12.0148 194.664 12.6532 194.181 13.0522Z" fill="black"/>
<path d="M90.5155 1.08228L84.9663 15.9252H88.1832L89.2287 12.7331H94.4563L95.5017 15.9252H98.7187L93.089 1.08228H90.5155ZM89.9525 10.3391L91.7219 4.9127L93.5716 10.3391H89.9525Z" fill="black"/>
</svg>
