<svg width="1395" height="689" viewBox="0 0 1395 689" fill="none" xmlns="http://www.w3.org/2000/svg">
<g opacity="0.2">
<path d="M866.334 513.874H543.09C543.09 424.775 615.406 352.459 704.712 352.459C794.018 352.459 866.334 424.568 866.334 513.874Z" fill="#E5E5E5"/>
<path d="M866.334 337.541H543.09C543.09 248.441 615.406 176.126 704.712 176.126C794.018 176.126 866.334 248.441 866.334 337.541Z" fill="#E5E5E5"/>
<path d="M690 161.414H366.964C366.964 72.3153 439.279 0 528.586 0C617.892 0 690 72.1081 690 161.414Z" fill="#E5E5E5"/>
<path d="M1394.92 337.541H1071.88C1071.88 248.441 1144.2 176.126 1233.5 176.126C1322.6 176.126 1394.92 248.441 1394.92 337.541Z" fill="#E5E5E5"/>
<path d="M161.414 366.964H14.5044V513.874H161.414V366.964Z" fill="#E5E5E5"/>
<path d="M337.748 14.5045H190.838V161.414H337.748V14.5045Z" fill="#E5E5E5"/>
<path d="M161.414 543.09H14.5044V690H161.414V543.09Z" fill="#E5E5E5"/>
<path d="M690 543.09H543.09V690H690V543.09Z" fill="#E5E5E5"/>
<path d="M513.874 190.838H366.964V337.748H513.874V190.838Z" fill="#E5E5E5"/>
<path d="M337.748 543.09H190.838V690H337.748V543.09Z" fill="#E5E5E5"/>
<path d="M1218.79 366.964H1071.88V513.874H1218.79V366.964Z" fill="#E5E5E5"/>
<path d="M866.333 14.5045H719.423V161.414H866.333V14.5045Z" fill="#E5E5E5"/>
<path d="M161.414 14.5045V337.541C72.3153 337.541 0 265.225 0 175.919C0 86.6126 72.1081 14.5045 161.414 14.5045Z" fill="#E5E5E5"/>
<path d="M190.838 513.874V190.838C279.937 190.838 352.253 263.153 352.253 352.459C352.253 441.766 279.937 513.874 190.838 513.874Z" fill="#E5E5E5"/>
<path d="M513.874 366.964V690C424.775 690 352.46 617.685 352.46 528.378C352.46 439.072 424.568 366.964 513.874 366.964Z" fill="#E5E5E5"/>
<path d="M1042.46 190.838V513.874C953.36 513.874 881.045 441.559 881.045 352.252C881.045 262.946 953.153 190.838 1042.46 190.838Z" fill="#E5E5E5"/>
</g>
</svg>
