<svg width="50" height="50" viewBox="0 0 50 50" fill="none" xmlns="http://www.w3.org/2000/svg">
<g clip-path="url(#clip0)">
<path d="M44.5661 4.34668H31.5222C30.9222 4.34668 30.4352 4.83369 30.4352 5.43371C30.4352 6.03373 30.9222 6.52073 31.5222 6.52073H44.5661C45.1661 6.52073 45.6531 6.03373 45.6531 5.43371C45.6531 4.83369 45.1661 4.34668 44.5661 4.34668Z" fill="black"/>
<path d="M45.3357 4.66594L40.9877 0.317945C40.5638 -0.105982 39.8746 -0.105982 39.4507 0.317945C39.0268 0.741871 39.0268 1.43106 39.4507 1.85498L43.0291 5.43339L39.4486 9.01394C39.0246 9.43787 39.0246 10.1271 39.4486 10.551C39.6616 10.7618 39.9398 10.8684 40.2182 10.8684C40.4965 10.8684 40.7747 10.7619 40.9877 10.551L45.3357 6.20298C45.7597 5.77895 45.7597 5.08987 45.3357 4.66594Z" fill="black"/>
<path d="M16.3044 4.34668H3.26049C2.66047 4.34668 2.17346 4.83369 2.17346 5.43371C2.17346 6.03373 2.66047 6.52073 3.26049 6.52073H16.3044C16.9044 6.52073 17.3914 6.03373 17.3914 5.43371C17.3914 4.83369 16.9044 4.34668 16.3044 4.34668Z" fill="black"/>
<path d="M4.79745 5.43339L8.37585 1.85498C8.79978 1.43106 8.79978 0.741871 8.37585 0.317945C7.95193 -0.105982 7.26274 -0.105982 6.83882 0.317945L2.49092 4.66605C2.06699 5.08997 2.06699 5.77916 2.49092 6.20308L6.83892 10.5511C7.052 10.7619 7.3302 10.8685 7.60851 10.8685C7.88681 10.8685 8.16501 10.762 8.37596 10.5489C8.79988 10.125 8.79988 9.43583 8.37596 9.0119L4.79745 5.43339Z" fill="black"/>
<path d="M43.4791 21.7384C42.5856 21.7384 41.7529 22.0101 41.0616 22.4732C40.466 20.7819 38.8507 19.5644 36.9571 19.5644C36.0636 19.5644 35.231 19.8362 34.5396 20.2992C33.944 18.6079 32.3287 17.3905 30.4352 17.3905C29.6439 17.3905 28.9004 17.6035 28.2612 17.9753V10.8685C28.2612 8.47057 26.3112 6.52051 23.9132 6.52051C21.5153 6.52051 19.5653 8.47057 19.5653 10.8685V29.3473L15.7869 26.5147C13.5477 24.8341 10.3606 25.0581 8.37583 27.0408C7.10405 28.3126 7.10405 30.38 8.37583 31.6518L23.8568 47.1349C25.7046 48.9828 28.1634 50.0002 30.7766 50.0002H35.8702C42.4618 50.0002 47.8271 44.637 47.8271 38.0433V26.0864C47.8271 23.6884 45.877 21.7384 43.4791 21.7384ZM45.6531 38.0432C45.6531 43.4369 41.2639 47.8261 35.8702 47.8261H30.7766C28.7417 47.8261 26.8308 47.0348 25.3938 45.5978L9.91287 30.1148C9.48895 29.6908 9.48895 29.0017 9.91287 28.5777C10.5868 27.906 11.4868 27.5603 12.3912 27.5603C13.1261 27.5603 13.8652 27.7886 14.4848 28.2538L20.0002 32.3908C20.3307 32.6387 20.7742 32.6757 21.1394 32.493C21.5068 32.3083 21.7394 31.9322 21.7394 31.5213V10.8685C21.7394 9.67061 22.7133 8.69456 23.9134 8.69456C25.1134 8.69456 26.0873 9.67071 26.0873 10.8685V27.1734C26.0873 27.7734 26.5743 28.2604 27.1743 28.2604C27.7743 28.2604 28.2614 27.7734 28.2614 27.1734V21.7385C28.2614 20.5406 29.2353 19.5645 30.4353 19.5645C31.6353 19.5645 32.6092 20.5407 32.6092 21.7385V27.1734C32.6092 27.7734 33.0963 28.2604 33.6963 28.2604C34.2963 28.2604 34.7833 27.7734 34.7833 27.1734V23.9124C34.7833 22.7145 35.7572 21.7385 36.9572 21.7385C38.1573 21.7385 39.1312 22.7146 39.1312 23.9124V27.1734C39.1312 27.7734 39.6182 28.2604 40.2182 28.2604C40.8182 28.2604 41.3052 27.7734 41.3052 27.1734V26.0864C41.3052 24.8885 42.2792 23.9124 43.4792 23.9124C44.6792 23.9124 45.6531 24.8886 45.6531 26.0864V38.0432Z" fill="black"/>
</g>
<defs>
<clipPath id="clip0">
<rect width="50" height="50" fill="white"/>
</clipPath>
</defs>
</svg>
