<svg width="100" height="100" viewBox="0 0 100 100" fill="none" xmlns="http://www.w3.org/2000/svg">
<g opacity="0.5">
<path d="M95.6939 60.7299H57.5498V98.8739H95.6939V60.7299Z" fill="#796A63"/>
<path d="M49.9101 15V98.8739C26.7761 98.8739 8 80.0978 8 56.91C8 33.7223 26.7223 15 49.9101 15Z" fill="#796A63"/>
</g>
<path d="M72.8882 14.7667C73.7164 15.1083 74.5342 15.4399 75.3623 15.7815V17.5198L76.8841 18.193V16.5351C77.5259 16.8265 78.1574 17.1179 78.7992 17.4093V19.0371L79.617 19.3988L79.9275 19.5897V10.4259L71.1491 5.21101V15.681L72.8882 16.4447V14.7667ZM76.8841 12.4355L78.7992 13.3901V15.1686L76.8841 14.3446V12.4355ZM72.9296 10.3556L75.3623 11.6417V13.7418L72.8882 12.7872L72.9296 10.3556ZM53.7164 21.961L52.3292 27.6784L41.5321 36.1187V86.3487L20.2381 81.5256L20.176 84.4094L53.7164 92.3574V92.4177L62.4741 95V12.4757L53.7164 16.0026V21.961ZM54.8344 19.8007L61.2422 17.359V19.4993L54.8344 21.7701V19.8007ZM54.8344 24.9855C56.9669 24.2821 59.1097 23.5687 61.2422 22.8654V25.0056C59.1097 25.6487 56.9669 26.2917 54.8344 26.9348V24.9855ZM54.8344 30.1602C56.9669 29.5573 59.1097 28.9645 61.2422 28.3616V30.5018C59.1097 31.0344 56.9669 31.5669 54.8344 32.0995V30.1602ZM54.8344 35.3349C56.9669 34.8426 59.1097 34.3502 61.2422 33.8579V35.9981C59.1097 36.4201 56.9669 36.8321 54.8344 37.2541V35.3349ZM54.8344 40.5197C56.9669 40.1278 59.1097 39.746 61.2422 39.3541V41.4944C59.1097 41.7958 56.9669 42.1073 54.8344 42.4087V40.5197ZM54.8344 45.6944C56.9669 45.4131 59.1097 45.1317 61.2422 44.8504V46.9906C59.1097 47.1815 56.9669 47.3724 54.8344 47.5634V45.6944ZM54.8344 50.8792C56.9669 50.7084 59.1097 50.5275 61.2422 50.3567V52.4969C59.1097 52.5773 56.9669 52.6577 54.8344 52.7381V50.8792ZM54.8344 56.0539C56.9669 55.9836 59.1097 55.9233 61.2422 55.853V57.9932C59.1097 57.963 56.9669 57.9229 54.8344 57.8927V56.0539ZM54.8344 61.2387L61.2422 61.3593V63.4894C59.1097 63.3387 56.9669 63.1981 54.8344 63.0473V61.2387ZM54.8344 66.4134C56.9669 66.5541 59.1097 66.7048 61.2422 66.8455V68.9857C59.1097 68.7245 56.9669 68.4632 54.8344 68.212V66.4134ZM54.8344 71.5982C56.9669 71.8494 59.1097 72.1006 61.2422 72.3518V74.492C59.1097 74.1202 56.9669 73.7485 54.8344 73.3767V71.5982ZM54.8344 76.7729C56.9669 77.1346 59.1097 77.4964 61.2422 77.8481V79.9782C59.1097 79.4959 56.9669 79.0136 54.8344 78.5213V76.7729ZM54.8344 81.9577C56.9669 82.4199 59.1097 82.8922 61.2422 83.3544V85.4946C59.1097 84.8917 56.9669 84.2989 54.8344 83.696V81.9577ZM54.8344 87.1324L61.2422 88.8506V90.9908L54.8344 88.8607V87.1324ZM63.1781 12.5963V94.9498L80 91.8148V19.6701L63.1781 12.5963ZM68.8923 90.3679L66.0766 90.8401V88.3683L68.8923 88.0669V90.3679ZM68.8923 86.2884C67.9607 86.419 67.0186 86.5496 66.0766 86.6802V84.2084C67.0186 84.1381 67.9503 84.0577 68.8923 83.9874V86.2884ZM68.8923 82.2089C67.9607 82.3094 67.0186 82.4199 66.0766 82.5204V80.0486C67.0186 80.0084 67.9503 79.9581 68.8923 79.9079V82.2089ZM68.8923 78.1294C67.9607 78.2098 67.0186 78.2801 66.0766 78.3605V75.8887L68.8923 75.8284V78.1294ZM68.8923 74.0499C67.9607 74.1001 67.0186 74.1504 66.0766 74.1906V71.7188L68.8923 71.7489V74.0499ZM68.9027 69.9805L66.087 70.0407V67.5689C67.0186 67.6091 67.9607 67.6393 68.9027 67.6795V69.9805ZM68.9027 65.901C67.9607 65.8909 67.029 65.8809 66.087 65.8809V63.4091C67.029 63.4694 67.9607 63.5397 68.9027 63.6V65.901ZM68.9027 61.8215C67.9607 61.7913 67.029 61.7511 66.087 61.721V59.2492C67.029 59.3396 67.9607 59.4301 68.9027 59.5205V61.8215ZM68.9027 57.742C67.9607 57.6817 67.029 57.6214 66.087 57.5511V55.0793C67.029 55.1998 67.9607 55.3204 68.9027 55.441V57.742ZM68.9027 53.6625C67.9607 53.5721 67.029 53.4816 66.087 53.3912V50.9194C67.0186 51.0701 67.9607 51.2108 68.9027 51.3615V53.6625ZM68.9027 49.583C67.971 49.4624 67.029 49.3519 66.087 49.2313V46.7595C67.0186 46.9303 67.9607 47.1112 68.9027 47.282V49.583ZM68.9027 45.5035C67.971 45.3528 67.029 45.2121 66.087 45.0715V42.5996C67.029 42.8006 67.9607 43.0016 68.9027 43.2025V45.5035ZM68.9027 41.424C67.9607 41.2532 67.029 41.0824 66.087 40.9116V38.4398C67.0186 38.6709 67.9607 38.902 68.9027 39.1331V41.424ZM68.9027 37.3445C67.9607 37.1436 67.029 36.9426 66.087 36.7417V34.2698C67.0186 34.5311 67.9607 34.7823 68.9027 35.0435V37.3445ZM68.9027 33.265C67.9607 33.0339 67.029 32.8129 66.087 32.5818V30.11C67.029 30.3913 67.9607 30.6727 68.9027 30.9641V33.265ZM68.9027 29.1856C67.971 28.9344 67.029 28.6731 66.087 28.4219V25.9501C67.029 26.2616 67.9607 26.5731 68.9027 26.8846V29.1856ZM68.9027 25.1161C67.971 24.8348 67.029 24.5534 66.087 24.2721V21.8003C67.029 22.1419 67.9607 22.4835 68.9027 22.8151V25.1161ZM68.9027 21.0366L66.087 20.1022V17.6303L68.9027 18.7356V21.0366ZM70.7557 19.4088L72.5466 20.1122V22.2223L70.7557 21.6295V19.4088ZM70.766 23.428C71.3665 23.6391 71.9565 23.8601 72.5569 24.0711V26.1812C71.9565 26.0003 71.3665 25.8195 70.766 25.6386V23.428ZM70.766 27.4472C71.3665 27.6482 71.9565 27.8391 72.5569 28.0501V30.1602C71.9565 29.9994 71.3665 29.8387 70.766 29.6679V27.4472ZM70.7764 31.4665C71.3768 31.6473 71.9669 31.8282 72.5673 32.009V34.1191C71.9669 33.9785 71.3768 33.8277 70.7764 33.6871V31.4665ZM70.7764 35.4957C71.3768 35.6565 71.9669 35.8273 72.5673 35.9881V38.0981C71.9669 37.9675 71.3768 37.8369 70.7764 37.7163V35.4957ZM70.7867 39.5149C71.3872 39.6556 71.9876 39.8063 72.5776 39.947V42.057C71.9772 41.9465 71.3872 41.836 70.7867 41.7255V39.5149ZM70.7971 43.5341C71.3975 43.6647 71.9876 43.7954 72.588 43.926V46.0361C71.9876 45.9456 71.3975 45.8552 70.7971 45.7547V43.5341ZM70.7971 47.5533C71.3975 47.6638 71.9979 47.7744 72.588 47.8849V49.995C71.9876 49.9146 71.3975 49.8443 70.7971 49.7739V47.5533ZM70.8075 51.5826C71.4079 51.673 71.9979 51.7735 72.5983 51.8639V53.974C71.9979 53.9137 71.4079 53.8635 70.8075 53.8032V51.5826ZM70.8075 55.6018C71.4079 55.6821 71.9979 55.7525 72.5983 55.8329V57.9429C71.9979 57.9028 71.4079 57.8626 70.8075 57.8224V55.6018ZM70.8178 59.621C71.4182 59.6813 72.0186 59.7415 72.6087 59.7918V61.9019C72.0083 61.8818 71.4079 61.8617 70.8178 61.8416V59.621ZM70.8178 63.6402C71.4182 63.6804 72.0083 63.7206 72.6087 63.7607V65.8708C72.0083 65.8608 71.4182 65.8608 70.8178 65.8608V63.6402ZM70.8282 67.6694C71.4286 67.6895 72.0186 67.7197 72.619 67.7398V69.8498C72.0186 69.8599 71.4286 69.8699 70.8282 69.89V67.6694ZM70.8385 71.6886C71.4389 71.6886 72.029 71.6987 72.6294 71.7087V73.8188C72.029 73.8489 71.4389 73.8791 70.8385 73.9092V71.6886ZM70.8385 75.7078L72.6294 75.6777V77.7878C72.029 77.838 71.4389 77.8882 70.8385 77.9284V75.7078ZM70.8489 79.7371C71.4493 79.7069 72.0393 79.6768 72.6398 79.6466V81.7567C72.0393 81.8271 71.4493 81.8873 70.8489 81.9577V79.7371ZM70.8489 83.7563C71.4493 83.706 72.0497 83.6658 72.6398 83.6156V85.7257C72.0393 85.8061 71.4493 85.8965 70.8489 85.9769V83.7563ZM72.6501 89.6946L70.8592 89.9961V87.7755L72.6501 87.5846V89.6946ZM75.4244 89.2827L74.1201 89.5037V87.464L75.4244 87.3233V89.2827ZM75.4244 85.3941L74.1201 85.575V83.5352C74.5549 83.5051 74.9896 83.4649 75.4244 83.4347V85.3941ZM75.4244 81.5055C74.9896 81.5558 74.5549 81.596 74.1201 81.6462V79.6065L75.4244 79.5462V81.5055ZM75.4244 77.617C74.9896 77.6571 74.5549 77.6873 74.1201 77.7275V75.6877C74.5549 75.6777 74.9896 75.6676 75.4244 75.6676V77.617ZM75.4244 73.7284C74.9896 73.7485 74.5549 73.7686 74.1201 73.7987V71.759C74.5549 71.759 74.9896 71.769 75.4244 71.769V73.7284ZM75.4244 69.8398L74.1201 69.8699V67.8302C74.5549 67.8402 74.9896 67.8603 75.4244 67.8804V69.8398ZM75.4244 65.9512C74.9896 65.9512 74.5549 65.9412 74.1201 65.9412V63.9014L75.4244 63.9918V65.9512ZM75.4244 62.0626C74.9896 62.0425 74.5549 62.0325 74.1201 62.0124V59.9726C74.5549 60.0128 74.9896 60.0631 75.4244 60.1033V62.0626ZM75.4244 58.1741L74.1201 58.0836V56.0439C74.5549 56.1042 74.9896 56.1544 75.4244 56.2046V58.1741ZM75.4244 54.2855L74.1201 54.1649V52.1252C74.5549 52.1955 74.9896 52.2558 75.4244 52.3261V54.2855ZM75.4244 50.3969C74.9896 50.3366 74.5549 50.2864 74.1201 50.2361V48.1964L75.4244 48.4375V50.3969ZM75.4244 46.5083C74.9896 46.438 74.5549 46.3777 74.1201 46.3074V44.2676C74.5549 44.358 74.9896 44.4485 75.4244 44.549V46.5083ZM75.4244 42.6197L74.1201 42.3786V40.3388C74.5549 40.4494 74.9896 40.5499 75.4244 40.6604V42.6197ZM75.4244 38.7312C74.9896 38.6407 74.5549 38.5402 74.1201 38.4498V36.4101L75.4244 36.7718V38.7312ZM75.4244 34.8426C74.9896 34.7421 74.5549 34.6316 74.1201 34.5311V32.4913L75.4244 32.8832V34.8426ZM75.4244 30.954C74.9896 30.8334 74.5549 30.7229 74.1201 30.6023V28.5626C74.5549 28.7033 74.9896 28.854 75.4244 28.9946V30.954ZM75.4244 27.0654L74.1201 26.6736V24.6338C74.5549 24.7946 74.9896 24.9453 75.4244 25.1061V27.0654ZM75.4244 23.1668L74.1201 22.7347V20.695L75.4244 21.2074V23.1668ZM77.7329 88.9511L76.6149 89.142V87.2329L77.7329 87.1123V88.9511ZM77.7433 85.1228C77.3706 85.173 76.9979 85.2233 76.6149 85.2836V83.3745C76.9876 83.3443 77.3602 83.3142 77.7433 83.284V85.1228ZM77.7536 81.3046C77.381 81.3448 77.0083 81.3849 76.6253 81.4251V79.516C76.9979 79.4959 77.3706 79.4758 77.7536 79.4557V81.3046ZM77.7536 77.4863C77.381 77.5165 77.0083 77.5466 76.6253 77.5768V75.6676C76.9979 75.6576 77.3706 75.6475 77.7536 75.6475V77.4863ZM77.764 73.658C77.3913 73.6781 77.0186 73.6982 76.6356 73.7183V71.8092C77.0083 71.8092 77.3913 71.8192 77.764 71.8192V73.658ZM77.7743 69.8398C77.4017 69.8498 77.029 69.8599 76.6563 69.8599V67.9508C77.029 67.9608 77.4017 67.9809 77.7743 67.991V69.8398ZM77.7847 66.0215C77.412 66.0215 77.0393 66.0115 76.6563 66.0115V64.1024C77.029 64.1325 77.4017 64.1526 77.7847 64.1828V66.0215ZM77.795 62.1933C77.4224 62.1732 77.0393 62.1631 76.6667 62.1531V60.2439C77.0393 60.2741 77.412 60.3143 77.795 60.3545V62.1933ZM77.795 58.375C77.4224 58.3449 77.0497 58.3248 76.677 58.3047V56.3956C77.0497 56.4458 77.4224 56.486 77.795 56.5362V58.375ZM77.8054 54.5568C77.4327 54.5166 77.06 54.4864 76.677 54.4462V52.5371C77.0497 52.5974 77.4224 52.6577 77.8054 52.718V54.5568ZM77.8157 50.7285C77.4431 50.6782 77.0704 50.6381 76.6977 50.5878V48.6787L77.8157 48.8897V50.7285ZM77.8261 46.9102C77.4534 46.8499 77.0704 46.7997 76.6977 46.7394V44.8303C77.0704 44.9107 77.4431 44.9911 77.8261 45.0715V46.9102ZM77.8364 43.092C77.4638 43.0217 77.0911 42.9513 76.7081 42.881V40.9719C77.0807 41.0623 77.4534 41.1527 77.8364 41.2432V43.092ZM77.8468 39.2637C77.4741 39.1833 77.1014 39.1029 76.7184 39.0225V37.1134C77.0911 37.2139 77.4638 37.3144 77.8468 37.4249V39.2637ZM77.8571 35.4455C77.4845 35.355 77.1118 35.2646 76.7288 35.1742V33.265C77.1015 33.3756 77.4741 33.4961 77.8571 33.6067V35.4455ZM77.8571 31.6272L76.7391 31.3258V29.4167C77.1118 29.5372 77.4845 29.6679 77.8571 29.7884V31.6272ZM77.8675 27.7989C77.4948 27.6884 77.1222 27.5678 76.7495 27.4573V25.5482C77.1222 25.6788 77.4948 25.8195 77.8675 25.9501V27.7989ZM77.8778 23.9807L76.7598 23.6089V21.6998L77.8778 22.1419V23.9807ZM64.3271 11.1494L68.8509 9.59194V11.8025L65.0311 12.9781L70.4451 15.3595V5L62.4638 8.33594V11.8628L64.3271 12.6767V11.1494ZM40.4865 40.2886L20 55.9936L20.0518 59.8722L40.4865 53.3812V40.2886ZM40.4865 74.0298V66.6445L20.1656 69.5685L20.2277 74.8437L40.4865 74.0298ZM40.4865 84.0376V77.1346L20.2588 77.0442L20.2899 79.9481L40.4865 84.0376ZM40.4865 56.275L20.0828 62.2937L20.1449 67.4283L40.4865 63.5296V56.275Z" fill="black"/>
</svg>
