<svg width="100" height="100" viewBox="0 0 100 100" fill="none" xmlns="http://www.w3.org/2000/svg">
<g opacity="0.5">
<path d="M91.6938 6.09029V44.2344H53.5498V6.09029H91.6938Z" fill="#796A63"/>
<path d="M91.7837 52.2344L7.9098 52.2344C7.9098 75.3683 26.6859 94.1444 49.8736 94.1444C73.0614 94.1444 91.7837 75.4221 91.7837 52.2344Z" fill="#796A63"/>
</g>
<path d="M9.79501 62.771L10.719 62.8L10.802 62.75C12.535 61.677 15.273 60.348 18.476 60.106C18.815 60.081 19.131 60.068 19.42 60.068C21.333 60.068 21.754 60.605 22.2 61.173C22.611 61.695 23.076 62.287 24.588 62.287C24.96 62.287 25.377 62.255 25.862 62.185C28.402 61.826 29.636 61.231 30.726 60.706C31.791 60.192 32.711 59.75 34.655 59.571C34.879 59.55 35.093 59.539 35.294 59.539C36.68 59.539 37.227 60.027 37.805 60.545C38.367 61.044 38.946 61.561 40.184 61.561C40.538 61.561 40.922 61.519 41.36 61.434C43.085 61.1 44.03 60.656 44.863 60.264C45.89 59.781 46.778 59.363 48.915 59.305C50.82 59.254 51.664 59.663 52.478 60.058C53.305 60.461 54.156 60.879 55.983 60.773C57.765 60.671 58.583 60.237 59.372 59.816C60.188 59.38 61.034 58.93 63.081 58.771C63.368 58.75 63.641 58.737 63.89 58.737C65.245 58.737 65.851 59.066 66.435 59.383C66.995 59.687 67.572 60 68.675 60C69.057 60 69.478 59.963 69.959 59.888C72.004 59.572 72.924 59.04 73.813 58.527C74.595 58.075 75.333 57.649 76.853 57.379C77.207 57.317 77.543 57.285 77.855 57.285C78.956 57.285 79.661 57.677 80.344 58.055C81.083 58.464 81.849 58.887 83.021 58.771C84.098 58.664 84.77 58.266 85.481 57.844C86.421 57.288 87.394 56.711 89.557 56.691H89.668C91.42 56.691 92.131 57.089 92.883 57.513C93.202 57.693 93.534 57.878 93.945 58.034L94.565 58.268L94.363 57.636C92.563 52.004 89.453 49.596 89.32 49.495L89.224 49.422L89.102 49.431C88.138 49.506 86.994 49.569 85.693 49.62V39.722C87.222 39.317 88.186 39.013 88.21 39.005L90.206 38.372L88.111 38.381C88.082 38.382 84.963 38.387 76.635 38.019L78.188 36.142L77.502 36.146C71.88 36.18 69.95 35.979 61.614 34.833C53.096 33.663 48.854 34.52 47.807 35.609C47.555 35.871 47.44 36.193 47.473 36.542C47.534 37.194 48.098 37.821 48.528 38.211C41.969 40.269 38.551 44.147 37.936 44.898C36.692 44.942 35.534 45.02 34.456 45.119C16.247 44.34 4.31301 43.628 4.11101 43.616L3.80201 43.596L3.77401 43.904C3.62801 45.471 4.13401 46.642 4.52101 47.288C3.96601 47.261 3.65401 47.246 3.62801 47.244L3.20801 47.223L3.30001 47.634C5.21301 56.243 9.65701 62.579 9.70201 62.642L9.79501 62.771ZM85.05 49.648C84.619 49.663 84.171 49.677 83.708 49.689C83.168 49.368 82.672 49.037 82.216 48.699V40.564C83.258 40.337 84.218 40.105 85.05 39.891V49.648ZM12.588 47.671L11.298 44.656C13.588 44.777 16.373 44.922 19.59 45.079L20.777 48.051C17.785 47.914 15.003 47.784 12.588 47.671ZM21.479 48.083L20.293 45.114C22.947 45.244 25.879 45.382 29.051 45.525L29.168 45.885C25.016 46.741 22.979 47.861 22.533 48.13C22.178 48.114 21.828 48.099 21.479 48.083ZM29.372 46.51L30.011 48.466C27.918 48.373 25.848 48.28 23.842 48.192C24.864 47.734 26.664 47.066 29.372 46.51ZM30.695 48.497L30.005 46.385C31.303 46.139 32.791 45.921 34.484 45.764C35.589 45.811 36.716 45.86 37.869 45.907L38.964 48.854C36.238 48.738 33.451 48.618 30.695 48.497ZM39.658 48.883L38.562 45.936C40.908 46.032 43.343 46.129 45.855 46.226L47.07 49.182C46.929 49.177 46.789 49.171 46.648 49.167C44.419 49.078 42.066 48.983 39.658 48.883ZM47.772 49.21L46.559 46.252C48.71 46.333 50.916 46.414 53.173 46.495L54.221 49.431C52.095 49.365 49.939 49.291 47.772 49.21ZM54.909 49.451L53.862 46.518C55.869 46.588 57.916 46.658 59.996 46.726L60.738 49.607C58.831 49.563 56.883 49.51 54.909 49.451ZM61.403 49.622L60.663 46.747C61.788 46.783 62.925 46.819 64.068 46.854C64.953 47.205 65.159 47.458 65.159 47.458H66.319L66.95 49.727C65.153 49.7 63.298 49.664 61.403 49.622ZM67.619 49.735L66.982 47.458H71.702L72.592 49.785C70.996 49.776 69.334 49.76 67.619 49.735ZM73.279 49.788L72.386 47.458H73.352C73.297 47.342 73.234 47.229 73.167 47.115C74.523 47.15 75.888 47.185 77.263 47.219L78.044 49.783C77.152 49.789 76.23 49.792 75.272 49.792C74.621 49.793 73.954 49.791 73.279 49.788ZM78.714 49.777L77.938 47.235C78.508 47.25 79.078 47.263 79.649 47.276C80.416 48.101 81.37 48.932 82.555 49.718C81.362 49.747 80.078 49.766 78.714 49.777ZM77.217 41.461C78.726 41.256 80.208 40.985 81.574 40.701V48.198C78.241 45.447 77.405 42.415 77.217 41.461ZM48.109 36.485C48.094 36.32 48.144 36.185 48.268 36.056C49.027 35.265 52.672 34.253 61.524 35.47C69.552 36.574 71.675 36.81 76.819 36.792L75.833 37.986C75.343 37.964 74.839 37.94 74.315 37.915C71.244 37.771 68.58 37.51 66.23 37.279C60.688 36.734 56.31 36.306 50.406 37.697C50.014 37.79 49.635 37.89 49.261 37.996C48.873 37.694 48.161 37.031 48.109 36.485ZM38.955 44.726C40.615 44.751 45.448 44.853 49.424 45.218C49.424 45.218 52.227 41.841 55.27 39.811L45.381 40.151C46.865 39.434 48.586 38.785 50.554 38.321C56.354 36.955 60.684 37.379 66.167 37.918C68.525 38.149 71.197 38.411 74.284 38.557C80.164 38.834 83.872 38.947 85.952 38.993C83.84 39.565 80.37 40.409 76.807 40.868L76.5 40.908L76.528 41.216C76.543 41.366 76.809 43.864 79.076 46.624C76.93 46.572 74.805 46.519 72.704 46.462C69.211 42.252 57.524 40.199 57.524 40.199L52.76 45.075C56.916 45.333 59.698 45.735 61.555 46.136C53.24 45.872 45.448 45.579 38.448 45.29C38.546 45.173 38.713 44.98 38.955 44.726ZM29.802 45.761L29.736 45.556C30.058 45.57 30.383 45.584 30.712 45.599C30.398 45.651 30.096 45.706 29.802 45.761ZM4.39301 44.273C5.16401 44.318 7.30701 44.443 10.586 44.618L11.877 47.638C9.03301 47.504 6.75701 47.395 5.32001 47.327C5.07601 47.009 4.33601 45.911 4.39301 44.273Z" fill="black"/>
<path d="M96.524 59.855C96.347 59.846 96.085 59.841 95.747 59.796C95.407 59.765 94.993 59.683 94.528 59.533C94.059 59.382 93.578 59.1 93.025 58.772C92.472 58.439 91.778 58.154 90.995 58.036C90.796 58.015 90.595 57.991 90.389 57.968C90.189 57.957 89.984 57.948 89.777 57.94C89.342 57.935 88.911 57.944 88.454 57.99C87.547 58.074 86.563 58.369 85.667 58.871C85.217 59.112 84.7909 59.38 84.34 59.564C84.228 59.615 84.112 59.654 83.996 59.689C83.879 59.731 83.764 59.755 83.65 59.78C83.545 59.811 83.407 59.826 83.272 59.843C83.212 59.849 83.117 59.864 83.087 59.864L82.903 59.869C82.41 59.881 81.937 59.763 81.465 59.527C80.991 59.292 80.498 58.958 79.913 58.697C79.329 58.431 78.658 58.292 77.989 58.288C77.818 58.294 77.646 58.3 77.474 58.304C77.321 58.324 77.169 58.341 77.014 58.361L76.9 58.373C76.895 58.373 76.84 58.382 76.849 58.382L76.82 58.388L76.759 58.402L76.521 58.454C76.363 58.489 76.202 58.524 76.042 58.558C75.718 58.612 75.403 58.742 75.082 58.849C74.755 58.946 74.462 59.119 74.15 59.257C73.855 59.406 73.565 59.579 73.286 59.725L72.869 59.948C72.729 60.022 72.587 60.071 72.445 60.136C72.304 60.194 72.164 60.266 72.02 60.312L71.584 60.443C71.435 60.486 71.3 60.54 71.141 60.576L70.648 60.672L70.15 60.769L70.027 60.792L69.969 60.804C69.973 60.803 69.976 60.801 69.96 60.804L69.931 60.807L69.693 60.835C69.373 60.878 69.058 60.893 68.752 60.888C68.604 60.876 68.444 60.884 68.305 60.852L68.088 60.819L67.882 60.762C67.608 60.681 67.35 60.556 67.049 60.386C66.747 60.217 66.395 60.034 66.019 59.899C65.828 59.841 65.636 59.773 65.444 59.739L65.152 59.68L64.862 59.644L64.574 59.612L64.281 59.603C64.087 59.597 63.881 59.588 63.713 59.6L63.16 59.62L62.606 59.672C61.869 59.756 61.11 59.896 60.37 60.165C59.621 60.422 58.968 60.853 58.38 61.106C57.784 61.38 57.16 61.5 56.476 61.566C55.783 61.628 55.102 61.636 54.48 61.503C54.165 61.449 53.871 61.337 53.564 61.21C53.262 61.081 52.937 60.905 52.581 60.748C52.229 60.583 51.836 60.451 51.446 60.348C51.05 60.254 50.66 60.191 50.259 60.16C50.062 60.148 49.848 60.129 49.664 60.128H49.117C48.704 60.149 48.347 60.181 47.961 60.207L47.677 60.23L47.389 60.282L46.815 60.386C46.622 60.412 46.435 60.479 46.247 60.536C46.059 60.597 45.868 60.651 45.686 60.716C44.963 61.004 44.319 61.343 43.692 61.598C43.534 61.671 43.378 61.724 43.219 61.775L42.752 61.935C42.603 61.994 42.423 62.032 42.25 62.075L41.73 62.202C41.084 62.373 40.423 62.466 39.869 62.383C39.601 62.32 39.349 62.258 39.119 62.092C38.881 61.937 38.648 61.727 38.366 61.481C38.08 61.248 37.762 60.988 37.38 60.823C37.009 60.64 36.611 60.547 36.227 60.489C35.84 60.447 35.419 60.428 35.104 60.459L34.85 60.472L34.787 60.475L34.727 60.48L34.696 60.484L34.565 60.504L34.044 60.582C33.351 60.661 32.66 60.853 32.007 61.081C31.35 61.322 30.749 61.633 30.18 61.905C29.896 62.042 29.615 62.183 29.329 62.288L28.905 62.459L28.694 62.543L28.479 62.606C28.194 62.69 27.909 62.776 27.627 62.86C27.34 62.939 27.027 62.983 26.731 63.047C26.583 63.076 26.432 63.106 26.284 63.135L26.061 63.178L25.952 63.2L25.897 63.21C25.917 63.207 25.87 63.213 25.862 63.215C25.577 63.241 25.291 63.293 25.015 63.306C24.461 63.342 23.926 63.305 23.536 63.102C23.431 63.064 23.353 62.975 23.263 62.914C23.175 62.828 23.095 62.749 23.008 62.644C22.841 62.446 22.65 62.201 22.417 61.991C22.303 61.885 22.164 61.8 22.039 61.705C21.903 61.63 21.761 61.567 21.624 61.501C21.341 61.408 21.058 61.313 20.78 61.287C20.641 61.268 20.504 61.249 20.366 61.231C20.229 61.226 20.095 61.222 19.959 61.219C19.823 61.214 19.689 61.211 19.556 61.21C19.431 61.217 19.306 61.226 19.181 61.233C18.161 61.282 17.208 61.464 16.332 61.677C14.583 62.136 13.142 62.782 12.021 63.409C10.893 64.032 10.08 64.633 9.53596 65.051C8.99696 65.474 8.73096 65.727 8.73096 65.727C8.73096 65.727 9.00996 65.493 9.57796 65.107C10.141 64.723 10.999 64.198 12.137 63.63C13.272 63.064 14.72 62.501 16.439 62.14C17.299 61.975 18.222 61.844 19.205 61.847C19.328 61.844 19.455 61.842 19.582 61.839C19.701 61.848 19.82 61.857 19.941 61.864C20.061 61.873 20.181 61.88 20.304 61.887C20.423 61.908 20.542 61.928 20.663 61.95C21.142 62.038 21.599 62.195 21.921 62.525C22.089 62.691 22.236 62.887 22.419 63.124C22.506 63.238 22.619 63.363 22.732 63.478C22.864 63.584 22.984 63.712 23.144 63.786L23.374 63.911C23.452 63.945 23.533 63.966 23.614 63.994L23.856 64.069C23.938 64.085 24.017 64.092 24.096 64.105C24.423 64.166 24.733 64.1559 25.049 64.1589C25.363 64.1529 25.666 64.113 25.981 64.087C26.008 64.084 26.002 64.087 26.057 64.078L26.114 64.069L26.225 64.049L26.448 64.011C26.598 63.986 26.748 63.961 26.898 63.936C27.2 63.878 27.497 63.846 27.811 63.768C28.124 63.684 28.44 63.6 28.758 63.515L28.998 63.451L29.228 63.367L29.691 63.194C30.005 63.086 30.3 62.947 30.601 62.813C31.201 62.543 31.767 62.271 32.355 62.071C32.5 62.009 32.651 61.971 32.802 61.937L33.257 61.824C33.556 61.731 33.882 61.712 34.199 61.664L34.678 61.599L34.798 61.583L34.821 61.58C34.827 61.58 34.833 61.58 34.833 61.58L34.897 61.577L35.15 61.568C35.512 61.542 35.776 61.572 36.067 61.603C36.665 61.691 37.128 61.925 37.608 62.358C37.848 62.57 38.128 62.841 38.472 63.072C38.813 63.322 39.25 63.467 39.666 63.558C40.51 63.69 41.283 63.565 42.014 63.391L42.535 63.269C42.708 63.229 42.881 63.194 43.067 63.126L43.617 62.943C43.803 62.884 43.986 62.821 44.154 62.745C44.86 62.459 45.499 62.129 46.125 61.885C46.282 61.829 46.441 61.786 46.6 61.737C46.758 61.688 46.914 61.633 47.083 61.612L47.58 61.523L47.83 61.479L48.088 61.46L49.111 61.394L49.659 61.397C49.839 61.398 49.989 61.418 50.155 61.426C50.483 61.452 50.814 61.508 51.13 61.585C51.443 61.673 51.745 61.772 52.055 61.917C52.368 62.058 52.688 62.225 53.056 62.384C53.423 62.535 53.82 62.68 54.224 62.751C55.035 62.915 55.83 62.892 56.581 62.821C57.341 62.749 58.163 62.587 58.885 62.249C59.622 61.917 60.18 61.536 60.797 61.325C61.409 61.098 62.068 60.971 62.744 60.891L63.252 60.833L63.765 60.805C63.951 60.79 64.099 60.799 64.258 60.802L64.494 60.805L64.73 60.828L64.966 60.852L65.192 60.894C65.346 60.916 65.486 60.969 65.63 61.007C65.914 61.108 66.188 61.238 66.494 61.403C66.801 61.571 67.173 61.751 67.561 61.858L67.855 61.932L68.15 61.974C68.348 62.01 68.536 62.001 68.728 62.012C69.105 62.012 69.473 61.987 69.825 61.935L70.092 61.9L70.126 61.896C70.112 61.899 70.181 61.887 70.185 61.885L70.247 61.872L70.372 61.847L70.867 61.743L71.36 61.64C71.526 61.598 71.705 61.534 71.875 61.481L72.39 61.311C72.559 61.251 72.713 61.168 72.874 61.098C73.031 61.021 73.197 60.956 73.345 60.872L73.788 60.622C74.082 60.459 74.344 60.292 74.621 60.143C74.893 60.015 75.152 59.849 75.436 59.76C75.715 59.66 75.985 59.536 76.281 59.481C76.567 59.416 76.873 59.325 77.135 59.282C77.288 59.261 77.44 59.236 77.593 59.215L77.995 59.195C78.545 59.185 79.077 59.282 79.579 59.484C80.084 59.685 80.569 59.989 81.123 60.245C81.678 60.503 82.325 60.642 82.928 60.601L83.155 60.587C83.2589 60.575 83.3 60.566 83.375 60.554C83.507 60.533 83.639 60.514 83.79 60.47C83.937 60.433 84.083 60.396 84.214 60.343C84.351 60.296 84.482 60.246 84.609 60.184C85.12 59.951 85.555 59.658 85.972 59.404C86.797 58.89 87.653 58.589 88.514 58.463C88.94 58.398 89.3689 58.367 89.767 58.351C89.974 58.351 90.179 58.349 90.379 58.349C90.571 58.363 90.762 58.374 90.947 58.388C91.696 58.463 92.345 58.693 92.905 58.99C93.463 59.289 93.989 59.561 94.481 59.68C94.971 59.801 95.395 59.856 95.74 59.865C96.083 59.888 96.344 59.875 96.523 59.872C96.7 59.868 96.791 59.865 96.791 59.865C96.791 59.865 96.701 59.863 96.524 59.855Z" fill="black"/>
</svg>
