<svg width="100" height="100" viewBox="0 0 100 100" fill="none" xmlns="http://www.w3.org/2000/svg">
<g opacity="0.5">
<path d="M11 98.1442L11 60.0001L49.1441 60.0001L49.1441 98.1442H11Z" fill="#796A63"/>
<path d="M10.9102 52.0001L94.784 52.0001C94.784 28.8662 76.0079 10.0901 52.8202 10.0901C29.6325 10.0901 10.9102 28.8124 10.9102 52.0001Z" fill="#796A63"/>
</g>
<path d="M68 56H7V57H68V56Z" fill="black"/>
<path d="M68 57L81 61V59L68 56V57Z" fill="black"/>
<path d="M95 59H81V61H95V59Z" fill="black"/>
<path d="M95 62H82V88H95V62Z" fill="black"/>
<path d="M83 49H82V57H83V49Z" fill="black"/>
<path d="M77 49H76V53H77V49Z" fill="black"/>
<path d="M79.5 47C77.567 47 76 47.896 76 49C76 49.542 76.387 50.029 77 50.389V50V49.999C77 48.896 78.176 48 79.625 48C81.074 48 82.25 48.896 82.25 49.999C82.25 50.084 82.23 50.164 82.217 50.246C82.699 49.903 83 49.474 83 49C83 47.896 81.433 47 79.5 47Z" fill="black"/>
<path d="M55 34H32V38H55V34Z" fill="black"/>
<path d="M32 33H55L54 27H32V33Z" fill="black"/>
<path d="M32 25H55L54 26H33L32 25Z" fill="black"/>
<path d="M71 56H80L95 58H81L71 56Z" fill="black"/>
<path d="M51 55H36V56H51V55Z" fill="black"/>
<path d="M42 52H38V55H42V52Z" fill="black"/>
<path d="M49 53H44V55H49V53Z" fill="black"/>
<path d="M46.5 54C47.8807 54 49 53.5523 49 53C49 52.4477 47.8807 52 46.5 52C45.1193 52 44 52.4477 44 53C44 53.5523 45.1193 54 46.5 54Z" fill="black"/>
<path d="M42 52.5C42 52.5 42.5 52.5 43 52V52.5C43 52.5 42.5 53.5 42 53.5V52.5Z" fill="black"/>
<path d="M39 52.5C39 52.5 38.5 52.5 38 52V52.5C38 52.5 38.5 53.5 39 53.5V52.5Z" fill="black"/>
<path d="M38 52.5C38 52.5 37.5 52.5 37 52V52.5C37 52.5 37.5 53.5 38 53.5V52.5Z" fill="black"/>
<path d="M47 53H46L47 50V53Z" fill="black"/>
<path d="M44.0001 54C44.0001 54 43.0001 50 49.0001 51V50C49.0001 50 43.0001 49 44.0001 54Z" fill="black"/>
<path d="M49 53.667C49 53.667 49.667 54.333 50.333 53V53.667C50.333 53.667 49.667 55 49 55V53.667Z" fill="black"/>
<path d="M8 58V77H19V58H8ZM17 68C16.448 68 16 67.553 16 67C16 66.447 16.448 66 17 66C17.552 66 18 66.447 18 67C18 67.553 17.552 68 17 68Z" fill="black"/>
<path d="M20 58V77H31V58H20ZM22 68C21.448 68 21 67.553 21 67C21 66.447 21.448 66 22 66C22.552 66 23 66.447 23 67C23 67.553 22.552 68 22 68Z" fill="black"/>
<path d="M8 18V37H19V18H8ZM17 28C16.448 28 16 27.553 16 27C16 26.447 16.448 26 17 26C17.552 26 18 26.447 18 27C18 27.553 17.552 28 17 28Z" fill="black"/>
<path d="M20 18V37H31V18H20ZM22 28C21.448 28 21 27.553 21 27C21 26.447 21.448 26 22 26C22.552 26 23 26.447 23 27C23 27.553 22.552 28 22 28Z" fill="black"/>
<path d="M32 18V25H43V18H32ZM41 23C40.448 23 40 22.553 40 22C40 21.447 40.448 21 41 21C41.552 21 42 21.447 42 22C42 22.553 41.552 23 41 23Z" fill="black"/>
<path d="M44 18V25H55V18H44ZM46 23C45.448 23 45 22.553 45 22C45 21.447 45.448 21 46 21C46.553 21 47 21.447 47 22C47 22.553 46.553 23 46 23Z" fill="black"/>
<path d="M56 18V37H67V18H56ZM65 28C64.447 28 64 27.553 64 27C64 26.447 64.447 26 65 26C65.553 26 66 26.447 66 27C66 27.553 65.553 28 65 28Z" fill="black"/>
<path d="M68 18V37H79V18H68ZM70 28C69.447 28 69 27.553 69 27C69 26.447 69.447 26 70 26C70.553 26 71 26.447 71 27C71 27.553 70.553 28 70 28Z" fill="black"/>
<path d="M32 58V67H55V58H32ZM43 61C42.448 61 42 60.553 42 60C42 59.447 42.448 59 43 59C43.552 59 44 59.447 44 60C44 60.553 43.552 61 43 61Z" fill="black"/>
<path d="M56 58V77H67V58H56ZM59 69C58.447 69 58 68.553 58 68C58 67.447 58.447 67 59 67C59.553 67 60 67.447 60 68C60 68.553 59.553 69 59 69Z" fill="black"/>
<path d="M68 58.166V77L73 81.23V59.64L68 58.166ZM71.5 70C71.224 70 71 69.553 71 69C71 68.447 71.224 68 71.5 68C71.776 68 72 68.447 72 69C72 69.553 71.776 70 71.5 70Z" fill="black"/>
<path d="M74 59.936V82.078L81 88V62L74 59.936ZM75.5 72C75.224 72 75 71.553 75 71C75 70.447 75.224 70 75.5 70C75.776 70 76 70.447 76 71C76 71.553 75.776 72 75.5 72Z" fill="black"/>
<path d="M32 68V77H55V68H32ZM43 72C42.448 72 42 71.553 42 71C42 70.447 42.448 70 43 70C43.552 70 44 70.447 44 71C44 71.553 43.552 72 43 72Z" fill="black"/>
</svg>
