<svg width="100" height="100" viewBox="0 0 100 100" fill="none" xmlns="http://www.w3.org/2000/svg">
<g opacity="0.5">
<path d="M91.6938 91.1441V53L53.5498 53L53.5498 91.1441H91.6938Z" fill="#796A63"/>
<path d="M91.7837 45L7.9098 45C7.9098 21.8661 26.6859 3.08997 49.8736 3.08997C73.0614 3.08997 91.7837 21.8123 91.7837 45Z" fill="#796A63"/>
</g>
<path d="M77.95 70.7H92.35L86.95 69.8L82.45 68H73.45C71.65 68 70.75 68.9 70.75 68.9C71.65 70.7 77.95 70.7 77.95 70.7Z" fill="black"/>
<path d="M77.05 71.6C71.65 71.6 70.75 69.8 70.75 69.8L75.25 80.6C77.05 83.3 78.85 83.3 78.85 83.3H89.65C93.25 80.6 92.35 71.6 92.35 71.6H77.05Z" fill="black"/>
<path d="M86.9502 59.99L82.4502 59V66.92L86.9502 68.9V59.99Z" fill="black"/>
<path d="M88.7501 59.9L87.8501 60.7181V68.9H93.2501V59.9H88.7501Z" fill="black"/>
<path d="M29.3499 62.6H8.6499V86H29.3499V62.6Z" fill="black"/>
<path d="M29.35 59.9H7.75V61.7H29.35V59.9Z" fill="black"/>
<path d="M30.25 61.7L39.25 58.1V57.2L30.25 59.9V61.7Z" fill="black"/>
<path d="M25.7499 57.2L18.5499 57.9578V51.8C18.5499 50.8064 19.4949 50 20.7999 50C22.1049 50 23.0499 50.8064 23.0499 51.8V54.5H23.9499V50.9C23.9499 49.9064 22.5396 49.1 20.7999 49.1C19.0602 49.1 17.6499 49.9064 17.6499 50.9V58.0523L8.6499 59H29.3499L36.5499 57.2H25.7499Z" fill="black"/>
<path d="M41.9502 77.9L44.6502 77V66.2L41.9502 67.1V77.9Z" fill="black"/>
<path d="M57.2498 64.4C52.7498 67.1 45.5498 66.2 45.5498 66.2V77C54.5498 77.9 57.2498 72.5 57.2498 72.5V64.4Z" fill="black"/>
<path d="M59.0499 64.4H58.1499V71.6H59.0499V64.4Z" fill="black"/>
<path d="M57.25 63.5H59.05L58.15 60.8H40.15L39.25 61.4003V59L30.25 62.6V86L36.4807 77.9H41.05V67.1H39.25V66.2H41.95L44.65 65.3C44.65 65.3 51.85 66.2 57.25 63.5ZM41.95 65.3H39.25V62.8997L41.05 61.7H57.25V62.6C57.25 62.6 52.75 65.3 44.65 64.4L41.95 65.3Z" fill="black"/>
<path d="M63.6068 72.5108C63.7103 72.5153 63.8075 72.5279 63.9092 72.5342C63.6473 72.5126 63.3773 72.5 63.1001 72.5C62.8229 72.5 62.5529 72.5126 62.2919 72.5342C62.3936 72.527 62.4908 72.5153 62.5943 72.5108C59.1041 72.6143 56.3501 73.7771 56.3501 75.2C56.3501 76.6913 59.3723 77.9 63.1001 77.9C66.8279 77.9 69.8501 76.6913 69.8501 75.2C69.8501 73.7771 67.0961 72.6143 63.6068 72.5108ZM63.1001 76.46C60.3668 76.46 58.1501 75.5735 58.1501 74.48C58.1501 73.499 59.9384 72.6926 62.2784 72.5351C60.4361 72.6962 59.0501 73.3838 59.0501 74.21C59.0501 75.1541 60.8636 75.92 63.1001 75.92C65.3366 75.92 67.1501 75.1532 67.1501 74.21C67.1501 73.3838 65.7641 72.6953 63.9218 72.5351C66.2618 72.6926 68.0501 73.499 68.0501 74.48C68.0501 75.5735 65.8334 76.46 63.1001 76.46Z" fill="black"/>
<path d="M63.5499 28.4H44.6499V54.5H63.5499V28.4ZM54.5499 36.5V34.7H60.8499V36.5H54.5499ZM60.8499 37.4V39.2H54.5499V37.4H60.8499ZM54.5499 33.8V32H60.8499V33.8H54.5499ZM53.6499 33.8H47.3499V32H53.6499V33.8ZM53.6499 34.7V36.5H47.3499V34.7H53.6499ZM53.6499 37.4V39.2H47.3499V37.4H53.6499ZM53.6499 40.1V41.9H47.3499V40.1H53.6499ZM47.3499 45.5H53.6499V47.3H47.3499V45.5ZM47.3499 44.6V42.8H53.6499V44.6H47.3499ZM47.3499 48.2H53.6499V50H47.3499V48.2ZM54.5499 48.2H60.8499V50H54.5499V48.2ZM54.5499 47.3V45.5H60.8499V47.3H54.5499ZM54.5499 44.6V42.8H60.8499V44.6H54.5499ZM54.5499 41.9V40.1H60.8499V41.9H54.5499ZM60.8499 30.2V31.1H54.5499V30.2H60.8499ZM53.6499 30.2V31.1H47.3499V30.2H53.6499ZM47.3499 50.9H53.6499V52.7H47.3499V50.9ZM54.5499 52.7V50.9H60.8499V52.7H54.5499Z" fill="black"/>
<path d="M16.7502 54.14V49.1C16.7502 49.1 20.3502 46.4 24.8502 49.1V25.7L10.4502 14L11.3502 54.5L16.7502 54.14Z" fill="black"/>
</svg>
