<svg width="100" height="100" viewBox="0 0 100 100" fill="none" xmlns="http://www.w3.org/2000/svg">
<g opacity="0.5">
<path d="M5.81979 8.27014L43.9639 8.27014L43.9639 46.4142L5.81979 46.4142L5.81979 8.27014Z" fill="#796A63"/>
<path d="M51.964 8.18005L51.964 92.0539C75.0979 92.0539 93.874 73.2778 93.874 50.0901C93.874 26.9024 75.1517 8.18005 51.964 8.18005Z" fill="#796A63"/>
</g>
<path fill-rule="evenodd" clip-rule="evenodd" d="M33.7841 31L100 47.3544L45.1741 69L33.8408 60.6002L33.9087 56.6379L30.8048 48.3965C30.8048 48.3965 30.3155 46.9081 29.4258 46.9081C28.654 46.9081 28.1447 47.5083 27.85 47.959C27.7922 48.0476 26.8969 45.3056 26.8969 45.3056C26.8969 45.3056 26.0807 43.9324 25.518 43.9324C24.1601 43.9324 23.564 45.9922 23.564 45.9922L23.3338 52.6312L24.0233 53.2038C24.0233 53.2038 23.961 46.3599 24.2535 45.8782C24.3391 45.722 24.6828 44.619 25.518 44.619C25.9683 44.619 26.3231 45.5349 26.3231 45.5349C26.3231 45.5349 27.4819 48.5482 27.4597 48.6157C27.3051 49.0831 27.2417 50.1152 27.2428 50.1141V55.608L27.9323 56.0653V50.5714V49.7774C27.9323 49.7774 29.3658 53.3953 29.4269 53.6622C29.4881 53.9291 29.5415 57.4396 29.5415 57.4396L30.1164 57.897C30.1164 57.897 30.0808 53.7918 30.0019 53.433C29.9218 53.0742 28.0991 48.5626 28.0991 48.4817C28.3682 48.0609 28.9232 47.4817 29.4281 47.4817C29.844 47.4817 30.2332 48.5116 30.2332 48.5116L33.4516 56.8671L33.4149 60.2824L27.939 56.2237L27.9312 59.5005C27.9312 59.5005 28.3905 59.5903 28.3905 59.9579C28.3905 60.3256 27.5853 60.4153 27.5853 60.4153C27.5853 60.4153 26.6656 60.3444 26.6656 59.9579C26.6656 59.5714 27.2406 59.5005 27.2406 59.5005L27.2417 55.7121L24.0244 53.3278L24.0211 56.639C24.0211 56.639 24.596 56.6899 24.596 56.9823C24.596 57.2746 24.2891 57.5548 23.6763 57.5548C23.0636 57.5548 22.8712 57.3023 22.8712 56.9823C22.8712 56.6622 23.3305 56.639 23.3305 56.639L23.3394 52.8206L0 35.5216L33.7841 31Z" fill="black"/>
</svg>
