<svg width="100" height="100" viewBox="0 0 100 100" fill="none" xmlns="http://www.w3.org/2000/svg">
<g opacity="0.5">
<path d="M97.6938 10.0899V48.234L59.5498 48.234L59.5498 10.0899L97.6938 10.0899Z" fill="#796A63"/>
<path d="M97.7837 56.234L13.9098 56.234C13.9098 79.3679 32.6859 98.144 55.8736 98.144C79.0614 98.144 97.7837 79.4217 97.7837 56.234Z" fill="#796A63"/>
</g>
<path fill-rule="evenodd" clip-rule="evenodd" d="M13.8304 73.7088H23.6545V72.2079H13.8304V73.7088ZM73.4628 21.9018H38.924V81.142H73.4626V21.9018H73.4628ZM38.4617 20.9585H73.9368C74.1862 20.9585 74.3996 21.1779 74.3996 21.4331V81.1421H77.2474V17.9922H74.0678H74.0561H35.1279V81.142H37.9869V21.433C37.9869 21.1779 38.2003 20.9585 38.4617 20.9585ZM42.377 53.6873C42.2349 53.5448 42.0446 53.4619 41.8192 53.4619C41.6057 53.4619 41.4043 53.5448 41.2733 53.6873C41.1193 53.8355 41.0361 54.0253 41.0361 54.2447C41.0361 54.4585 41.1192 54.6543 41.2733 54.7967C41.4043 54.9448 41.6059 55.0281 41.8192 55.0281C42.0446 55.0281 42.2347 54.945 42.377 54.7967C42.5075 54.6543 42.6024 54.4585 42.6024 54.2447C42.6022 54.0252 42.5073 53.8355 42.377 53.6873ZM41.8192 52.5186C42.2941 52.5186 42.7327 52.7083 43.0415 53.0228C43.3499 53.3373 43.5514 53.7702 43.5514 54.2447C43.5514 54.7134 43.3499 55.1465 43.0415 55.4608C42.7327 55.7753 42.2941 55.9652 41.8192 55.9652C41.3449 55.9652 40.9058 55.7753 40.6093 55.4608C40.2886 55.1465 40.0991 54.7134 40.0991 54.2447C40.0991 53.7702 40.2886 53.3373 40.6093 53.0228C40.9058 52.7083 41.3449 52.5186 41.8192 52.5186ZM73.5811 15.6667H31.4615V81.142H34.1902V17.5235C34.1902 17.2626 34.4041 17.0549 34.6649 17.0549H73.5811V15.6667ZM60.5537 26.523C59.4386 25.3958 57.8963 24.7077 56.1997 24.7077C54.5026 24.7077 52.9484 25.3958 51.8333 26.523C50.7183 27.6323 50.0419 29.1748 50.0419 30.8715C50.0419 31.1385 49.816 31.34 49.5669 31.34H46.3991V52.6966H49.5669C49.816 52.6966 50.0419 52.9042 50.0419 53.1711C50.0419 54.8679 50.7183 56.4162 51.8333 57.5195C52.9483 58.6467 54.5026 59.3291 56.1997 59.3291C57.8843 59.3291 59.4149 58.6467 60.5301 57.5435L60.5539 57.5195C61.6578 56.4162 62.3571 54.8679 62.3571 53.1711C62.3571 52.9042 62.5594 52.6966 62.832 52.6966H65.9881V31.3399H62.832C62.5594 31.3399 62.3571 31.1383 62.3571 30.8714C62.3568 29.1748 61.6693 27.6323 60.5537 26.523ZM56.1995 23.7704C58.1569 23.7704 59.9246 24.5714 61.2179 25.8586C62.393 27.0392 63.1642 28.6349 63.2708 30.4027H66.4625C66.7112 30.4027 66.9246 30.6221 66.9246 30.8714V53.1709C66.9246 53.426 66.7112 53.6398 66.4625 53.6398H63.2708C63.1642 55.4135 62.393 57.0033 61.2179 58.1899L61.1942 58.2077C59.9007 59.4893 58.1447 60.2721 56.1993 60.2721C54.2294 60.2721 52.4619 59.4771 51.1684 58.1899C49.9821 57.0033 49.2229 55.4135 49.1039 53.6398H45.9359C45.6751 53.6398 45.4616 53.426 45.4616 53.1709V30.8714C45.4616 30.6221 45.6751 30.4027 45.9359 30.4027H49.1039C49.2229 28.6349 49.9821 27.0392 51.1684 25.8586C52.4621 24.5713 54.2298 23.7704 56.1995 23.7704ZM66.5811 66.2994H45.8174V74.9723H66.5811V66.2994ZM45.3435 65.3619H67.0559C67.3048 65.3619 67.5184 65.5755 67.5184 65.8304V75.4406C67.5184 75.6959 67.3048 75.9095 67.0559 75.9095H45.3435C45.082 75.9095 44.8684 75.6959 44.8684 75.4406V65.8304C44.8684 65.5756 45.082 65.3619 45.3435 65.3619ZM19.4424 60.0762V64.4543C19.5377 64.211 19.68 63.9975 19.8579 63.8196C20.1305 63.5407 20.4987 63.3568 20.9253 63.2737C21.3291 63.2026 21.7914 63.2026 22.3019 63.2737C22.3848 63.7958 22.3848 64.2467 22.3019 64.6618C22.2307 65.0948 22.0528 65.4568 21.7679 65.73C21.4951 66.0146 21.1277 66.1924 20.7003 66.2635C20.321 66.3468 19.9054 66.3468 19.4424 66.2814V71.7451H18.0546V66.1864C17.236 66.3111 16.5005 66.3229 15.8597 66.2043C15.1835 66.0737 14.6019 65.795 14.1749 65.3619C13.7356 64.929 13.4632 64.3475 13.3325 63.6711C13.2015 63.0245 13.2134 62.2591 13.3562 61.4406C14.1868 61.2983 14.9342 61.2803 15.5982 61.4168C16.2744 61.5416 16.8442 61.8144 17.2833 62.2591C17.6511 62.633 17.9118 63.1015 18.0545 63.6474V60.076H19.4424V60.0762ZM13.463 82.0853C13.2134 82.0853 13 81.8776 13 81.6166C13 81.3557 13.2134 81.142 13.463 81.142H68.1472C68.408 81.142 68.61 81.3555 68.61 81.6166C68.61 81.8777 68.4078 82.0853 68.1472 82.0853H13.463ZM50.6227 84.3337C50.3617 84.3337 50.1485 84.1199 50.1485 83.865C50.1485 83.6039 50.3619 83.3903 50.6227 83.3903H79.8814C80.1423 83.3903 80.3444 83.6039 80.3444 83.865C80.3444 84.1199 80.1421 84.3337 79.8814 84.3337H50.6227ZM82.8712 84.3337C82.6099 84.3337 82.3963 84.1199 82.3963 83.865C82.3963 83.6039 82.6097 83.3903 82.8712 83.3903H86.5257C86.7866 83.3903 87 83.6039 87 83.865C87 84.1199 86.7866 84.3337 86.5257 84.3337H82.8712ZM24.2006 84.2624C23.9393 84.2624 23.7258 84.0547 23.7258 83.7938C23.7258 83.5328 23.9393 83.3253 24.2006 83.3253H38.058C38.3194 83.3253 38.533 83.5328 38.533 83.7938C38.533 84.0547 38.3194 84.2624 38.058 84.2624H24.2006ZM15.1713 74.646L16.3694 81.142H21.1275L22.3138 74.646H15.1713Z" fill="black"/>
</svg>
